<svg width="154" height="154" viewBox="0 0 154 154" fill="none" xmlns="http://www.w3.org/2000/svg">
<path d="M55.5987 33.4999C55.6821 35.2839 56.1347 35.7832 55.967 36.2564C55.7993 36.7296 53.3804 44.9463 53.1484 46.2939C53.4103 49.9035 53.8146 54.6186 54.3383 55.7603C54.9325 53.81 56.467 49.0765 57.5191 47.6852C56.9249 43.2135 56.663 36.7564 56.8889 36.2326C57.4971 35.4003 58.2831 34.714 59.1898 34.2234C58.8207 33.229 58.4001 32.2545 57.9295 31.3038C56.9065 32.1208 55.8782 32.9057 55.5987 33.4999Z" fill="#B3EE6D"/>
<path d="M57.1207 18.6046C56.747 18.9216 55.4614 19.205 55.2776 18.2065C55.2179 17.891 54.8733 17.8849 54.8312 18.2065C54.6712 19.6812 56.9897 19.901 57.5724 19.0089C57.7447 18.7471 57.4499 18.3267 57.1207 18.6046ZM56.2707 13.1758C55.8949 13.0273 55.4867 12.9801 55.087 13.0388C54.4445 13.1636 54.4032 13.8535 55.1635 13.8596C55.4506 13.8721 55.7356 13.9139 56.0142 13.9844C56.6076 14.1031 56.5533 13.283 56.2707 13.1758ZM60.391 14.1031C59.8915 13.7908 59.2942 13.6743 58.7141 13.7761C58.2547 13.8833 58.2623 14.4959 58.8098 14.5556C59.2501 14.586 59.6812 14.6968 60.0816 14.8826C60.6291 15.1023 60.8251 14.4546 60.391 14.1031ZM58.8596 15.7624C58.3841 15.6858 58.188 16.9515 58.6398 17.0112C59.0916 17.0709 59.237 15.8229 58.8626 15.7624H58.8596ZM55.2562 15.1682C54.8228 15.1353 54.662 16.4109 55.0961 16.4584C55.5303 16.5059 55.6942 15.2003 55.2592 15.1682H55.2562ZM59.5227 20.3367C59.9928 19.9148 60.3021 20.5503 60.1176 20.7708C59.771 21.1873 59.3082 21.4912 58.7882 21.6436C58.2682 21.7961 57.7146 21.7902 57.198 21.6269C56.6513 21.4898 56.603 20.973 57.198 21.0319C57.6138 21.1092 58.0421 21.0852 58.4467 20.9621C58.8513 20.8389 59.2204 20.6202 59.5227 20.3244V20.3367Z" fill="#E5E5E5"/>
<path d="M65.4132 28.0358C65.1835 27.7433 64.9377 27.738 64.5808 27.97C62.5641 29.2872 60.3587 30.2897 58.0402 30.9432C57.2798 30.3201 56.6217 29.5817 56.09 28.7548C55.822 28.2793 55.2814 28.7548 55.4951 29.1178C55.9823 29.9286 56.5831 30.6655 57.2791 31.3061C56.7141 32.0181 56.0493 32.6448 55.3052 33.1668C55.0161 32.1266 54.9073 31.0446 54.9836 29.9677C54.93 29.6614 54.4606 29.2426 54.3419 30.9554C54.2396 31.9929 54.3736 33.04 54.7339 34.0182C55.103 34.8329 56.7738 32.8291 57.7072 31.9907C57.9369 32.5136 58.8963 35.166 59.616 35.0412C61.0609 34.7969 63.7784 33.447 64.4622 32.2763C64.4943 32.2174 64.5069 32.1498 64.4981 32.0834C64.4892 32.0169 64.4594 31.9549 64.413 31.9065C64.3666 31.8581 64.3059 31.8258 64.2398 31.8142C64.1738 31.8026 64.1058 31.8124 64.0456 31.8421C63.0763 32.3651 62.8565 33.1798 59.6696 34.2617C59.1589 33.4198 58.7233 32.5346 58.368 31.6162C60.6921 30.8758 62.9264 29.8785 65.0295 28.643C65.3917 29.1361 66.0816 30.3015 66.5395 30.1744C67.0449 30.0511 65.6008 28.2785 65.4132 28.0358Z" fill="#E5E5E5"/>
<path d="M60.5895 23.7778C58.7464 24.9669 56.8077 25.4669 54.7862 24.4378C53.8046 23.9447 53.7456 23.6529 53.7456 22.5588C53.7922 18.9533 54.1194 15.3569 54.7242 11.8022C54.8008 11.3267 54.0703 11.1483 53.9929 11.6238C53.7433 13.2471 52.5542 22.2617 53.1009 23.8673C53.6246 25.3773 55.7349 25.865 57.1591 25.865C56.993 26.6384 56.826 27.411 56.666 28.1897C56.6239 28.3804 57.1476 29.2012 57.5397 27.7203C57.7066 27.0902 57.8253 26.4477 57.9738 25.8115C59.1344 25.6973 60.2182 25.1798 61.0366 24.349C61.2977 24.0511 60.947 23.5519 60.5902 23.754L60.5895 23.7778ZM68.1056 12.7417C69.3483 13.5978 68.5573 15.7861 67.6301 16.0342C68.3728 17.0511 66.8391 20.6667 64.859 20.5771C64.8176 21.4339 64.5382 24.5136 64.4371 27.558C64.4371 27.9033 63.8421 27.826 63.7824 27.5105C63.5803 26.6422 64.0619 20.4584 64.199 19.9117C64.4072 19.097 65.055 19.4523 65.7089 18.5733C67.2909 16.4293 65.0489 15.1276 64.1392 16.8313C63.7235 17.61 62.0282 15.4814 61.761 12.2371C59.2816 11.9814 54.9049 11.4347 53.5611 10.453C53.2236 10.1998 52.9824 9.83897 52.8776 9.43021C52.7727 9.02145 52.8103 8.58915 52.9841 8.20463C53.158 7.82012 53.4578 7.50637 53.834 7.31516C54.2102 7.12395 54.6403 7.06671 55.0534 7.15287C54.8467 4.4645 58.3689 4.82744 59.0948 6.01045C59.1898 4.0426 64.7082 4.01274 64.565 6.96834C66.7089 5.67201 69.0726 8.82899 67.4432 9.9829C69.0887 9.89944 69.7388 12.2364 68.1033 12.7417H68.1056Z" fill="#E5E5E5"/>
<path d="M148.442 148.055C101.504 148.076 53.6835 148.285 6.92292 148.264C6.80778 148.264 6.69735 148.309 6.61593 148.391C6.53451 148.472 6.48877 148.583 6.48877 148.698C6.48877 148.813 6.53451 148.923 6.61593 149.005C6.69735 149.086 6.80778 149.132 6.92292 149.132C53.6896 149.637 101.527 149.191 148.442 149.186C149.114 149.183 149.168 148.055 148.442 148.055Z" fill="#E5E5E5"/>
<path d="M35.8451 140.3C31.5465 143.822 23.953 144.617 23.6383 146.84C23.5786 147.292 43.5695 146.941 43.7119 146.674C44.5029 145.193 43.2785 141.209 43.2425 140.728C40.7682 140.939 38.2762 140.789 35.8451 140.282V140.3ZM87.1072 137.594C86.6202 139.473 85.4181 142.724 84.9632 143.03C84.5084 143.336 80.1585 144.767 79.4456 147.323C79.3438 147.686 86.843 147.543 88.8346 145.968C90.8262 144.393 96.7542 138.873 96.8316 138.235C96.9089 137.596 94.3117 134.292 93.2642 133.734C92.6853 134.847 89.5873 137.594 87.1072 137.594Z" fill="#E5E5E5"/>
<path d="M95.965 75.1829C95.5714 74.7488 95.0668 75.1064 95.37 75.6424C95.8693 76.5466 96.7904 77.771 97.3608 77.6332C99.273 77.0385 101.063 76.1048 102.644 74.8767C103.239 74.4846 102.526 73.4854 102.091 72.6171C101.55 71.5114 101.158 72.1301 101.128 72.2725C101.045 72.6293 101.872 74.0566 102.074 74.3598C100.566 75.3219 98.9854 76.1647 97.3463 76.8805C96.8403 76.3533 96.3784 75.7855 95.965 75.1829ZM107.095 78.0666C107.388 78.8146 107.461 79.6308 107.305 80.4189C107.15 81.207 106.772 81.9342 106.216 82.5145C105.91 82.8415 105.288 82.5145 105.527 82.0804C105.919 81.493 106.228 80.8546 106.446 80.183C107.106 77.4417 104.179 76.6156 103.146 75.8545C103.089 75.8069 103.05 75.7424 103.034 75.6705C103.017 75.5987 103.025 75.5235 103.055 75.4563C103.085 75.389 103.137 75.3335 103.201 75.298C103.266 75.2625 103.34 75.249 103.413 75.2595C104.96 75.679 106.281 76.6882 107.092 78.0704L107.095 78.0666ZM102.195 83.1684C101.506 82.8828 99.5783 83.1386 98.8165 81.8782C98.2223 80.9027 98.6916 79.6064 98.4719 78.4823C98.3953 78.0842 97.7705 78.1914 97.7651 78.6018C97.723 81.0696 96.8463 83.6141 101.582 83.9533C102.431 84.0007 102.651 83.3583 102.193 83.1684H102.195Z" fill="#E5E5E5"/>
<path d="M129.284 94.1448C125.972 92.8484 117.07 97.5138 114.145 99.3844C111.594 94.4786 106.842 85.8806 104.038 81.4081C105.138 79.6776 102.331 78.2925 101.386 79.9931C101.234 80.2653 101.173 80.5788 101.211 80.8882C101.248 81.1976 101.384 81.4871 101.597 81.7147C101.81 81.9423 102.089 82.0964 102.396 82.1547C102.702 82.213 103.019 82.1725 103.3 82.039C112.904 99.9189 122.673 117.865 131.663 136.048C131.699 136.125 131.75 136.193 131.814 136.248C131.878 136.304 131.953 136.345 132.034 136.369C132.115 136.393 132.2 136.4 132.284 136.389C132.368 136.377 132.449 136.348 132.52 136.303C135.63 134.619 138.99 136.559 140.089 138.587C141.38 138.204 148.004 135.715 149.639 132.391C151.274 129.067 143.836 117.745 141.415 112.62C141.337 112.62 133.673 95.8615 129.284 94.1448ZM137.317 137.862C141.247 139.843 141.545 146.501 134.701 147.131C131.395 147.437 127.649 142.214 131.026 138.849C131.841 138.05 132.885 137.525 134.013 137.348C135.141 137.171 136.296 137.35 137.317 137.862ZM138.925 142.708C138.712 144.491 137.213 145.651 135.441 145.978C132.153 146.572 129.643 142.362 131.445 139.954C133.797 136.809 139.418 138.623 138.928 142.708H138.925ZM144.127 133.859C138.038 121.378 131.64 108.826 125.189 96.4824C124.969 96.0713 125.683 95.6915 125.908 96.0896C132.931 108.505 138.99 120.564 145.222 133.444C145.546 134.12 144.454 134.534 144.127 133.859Z" fill="#B3EE6D"/>
<path d="M33.4429 79.137C32.7767 78.4885 30.4697 79.4762 29.9406 78.1202C29.5899 77.2281 31.9314 76.3782 32.3189 75.6944C32.3533 75.6349 32.3695 75.5666 32.3655 75.4979C32.3614 75.4292 32.3374 75.3633 32.2962 75.3081C32.255 75.253 32.1986 75.2112 32.1339 75.1879C32.0692 75.1645 31.999 75.1607 31.9322 75.1768C31.304 75.4444 30.7221 75.8096 30.2078 76.2588C27.9306 77.8468 29.2683 79.5827 31.1833 79.8269C31.6826 79.8859 33.116 80.0291 33.4666 79.7259C33.5065 79.6872 33.5382 79.641 33.5598 79.5899C33.5815 79.5388 33.5926 79.4839 33.5926 79.4284C33.5926 79.3729 33.5815 79.318 33.5598 79.2669C33.5382 79.2158 33.5065 79.1695 33.4666 79.1309L33.4429 79.137ZM39.5854 76.1638C39.7163 76.4847 38.652 78.0551 38.2117 77.8644C37.0938 77.4004 31.7423 74.7902 31.9383 73.8928C32.2135 73.2256 32.6176 72.6194 33.1274 72.1087C33.3418 71.8705 33.7224 72.1623 33.6274 72.4356C33.508 72.8338 32.6642 73.8093 32.6994 73.9341C32.7829 74.2251 37.92 76.9785 38.2829 77.1393C38.4789 76.833 38.6573 76.3598 38.8778 76.0673C38.914 76.0264 38.9579 75.993 39.007 75.969C39.0561 75.945 39.1095 75.9309 39.164 75.9276C39.2186 75.9243 39.2732 75.9317 39.3249 75.9495C39.3766 75.9673 39.4242 75.9951 39.4651 76.0314C39.6007 76.1562 39.57 76.2572 39.5854 76.1638ZM37.3886 78.3997C36.7944 78.3399 36.7944 79.5115 36.6336 80.1416C36.5026 80.588 36.3487 81.0337 36.1941 81.4801C36.0394 81.9265 36.8181 82.598 37.508 80.3675C37.629 79.9632 38.1466 78.4762 37.3886 78.3997ZM34.0118 83.572C34.4895 83.362 34.9111 83.0425 35.2423 82.6393C35.7362 81.9969 36.5922 82.5314 35.6887 83.4778C34.1864 85.0383 33.0524 84.0046 34.008 83.572H34.0118ZM32.727 82.657C32.5424 82.7335 32.3112 82.8867 32.3525 83.1263C32.5187 84.1439 35.3794 82.4073 34.4965 81.7596C34.0991 81.464 33.838 82.1217 32.7132 82.657H32.727ZM32.8166 81.0276C32.4 80.6531 31.9069 81.4977 31.1397 81.8308C30.8839 81.9372 30.3602 82.0566 30.4437 82.425C30.6734 83.4602 33.5654 81.6876 32.8219 81.0161L32.8166 81.0276ZM30.2239 80.7603C30.6106 80.4334 30.9192 80.356 31.0447 80.6531C31.4008 81.4617 29.6175 82.1845 28.8028 81.438C28.1665 80.8438 28.2913 79.3928 28.9812 79.6539C29.2783 79.7672 29.1596 80.3262 29.2959 80.6179C29.3391 80.6978 29.3999 80.7667 29.4739 80.8194C29.5478 80.8721 29.6328 80.9072 29.7224 80.9219C29.8119 80.9367 29.9037 80.9308 29.9906 80.9046C30.0776 80.8785 30.1574 80.8328 30.2239 80.771V80.7603Z" fill="#E5E5E5"/>
<path d="M53.904 57.2135C51.1567 49.48 52.0128 35.3314 53.303 30.9194C53.4461 30.414 47.44 33.4761 46.1674 36.3482C44.8948 39.2204 42.3657 53.3843 41.4583 55.5007C40.551 57.6171 33.5556 70.6278 33.3304 70.8598C33.1053 71.0919 40.2049 76.3423 40.6919 76.003C41.0188 75.7733 43.0227 73.2381 44.4086 71.4088C46.0824 53.6959 45.3182 53.3131 46.6084 44.5741C46.6074 44.5379 46.614 44.5018 46.6279 44.4684C46.6418 44.4349 46.6627 44.4048 46.6891 44.38C46.7155 44.3552 46.7469 44.3363 46.7812 44.3245C46.8155 44.3128 46.8519 44.3085 46.888 44.3119C46.9241 44.3152 46.959 44.3263 46.9905 44.3442C47.022 44.3621 47.0494 44.3865 47.0707 44.4158C47.0921 44.4451 47.107 44.4786 47.1144 44.5141C47.1218 44.5496 47.1216 44.5862 47.1138 44.6216C46.8075 48.0213 45.8343 68.2725 45.7524 69.6133C45.6276 71.647 44.2003 81.6539 44.5633 82.1953C44.8489 82.5934 48.7256 82.9273 49.6889 82.1953C50.6521 81.4633 53.4339 74.1478 53.7746 73.637C52.8451 71.2167 53.0709 61.4172 53.904 57.2135ZM93.4142 54.1867C94.918 56.565 101.204 69.9326 101.281 70.6876C101.358 71.4425 94.8169 75.0398 94.2939 74.7458C93.771 74.4517 84.7227 60.5941 83.5198 59.0895C81.6545 56.7556 71.885 50.3153 68.5526 48.7441C68.231 48.591 67.9163 49.0711 68.2196 49.2847C70.0748 50.5933 71.983 51.6637 73.9393 53.0489C75.1767 68.8223 79.1606 81.5077 78.506 82.0904C78.0067 82.536 61.1851 83.0712 59.6697 82.6195C58.1544 82.1677 54.7164 75.7098 54.3175 72.4035C53.9186 69.0972 53.7708 60.4456 54.829 56.9432C57.767 47.1798 65.5327 30.9707 67.12 30.7387C68.7073 30.5067 75.2602 34.3069 76.8834 35.5373C81.2985 38.836 94.1316 54.5443 93.4165 54.1867H93.4142ZM56.1988 63.4923C56.2117 63.699 56.2996 63.894 56.4459 64.0405C56.5923 64.1871 56.7871 64.2752 56.9939 64.2884C57.2006 64.3015 57.405 64.2388 57.5688 64.112C57.7325 63.9851 57.8444 63.8029 57.8834 63.5995C58.1315 61.2924 55.8068 61.5895 56.1988 63.4923ZM58.1077 70.0689C58.5197 68.7672 56.8527 67.405 56.5442 69.2542C56.2823 70.7963 57.7241 71.2794 58.1077 70.0689ZM69.6193 37.692C70.4761 37.2755 68.9117 33.2915 68.5909 32.6078C68.424 32.2571 67.996 32.388 68.1392 32.7747C68.6747 34.1418 68.9935 35.5841 69.084 37.0496C68.3564 37.3234 67.6524 37.6563 66.9791 38.045C63.9408 39.7104 64.6606 39.4998 66.022 42.8023C66.2777 43.3965 66.5396 43.7977 66.0756 44.3184C62.6629 48.1653 58.6253 53.0535 56.6215 57.7089C56.4684 58.0596 56.8772 58.2089 57.0549 57.8874C60.254 52.1255 62.5495 49.5627 66.5695 44.9662C67.4883 43.908 67.205 43.777 66.3137 41.4937C65.4715 39.3589 64.8742 39.9838 69.6315 37.6943L69.6193 37.692ZM51.525 54.6622C47.6322 43.6737 47.6965 45.1323 48.7547 42.9424C48.9806 42.4669 49.6284 41.6997 49.4385 41.4026C48.2486 39.5052 47.4821 39.303 48.2486 37.7571C48.9393 36.3364 49.7849 34.9965 50.77 33.7617C51.0081 33.4554 51.365 33.702 51.1628 34.0113C50.1966 35.4017 49.3397 36.865 48.6 38.388C48.2608 39.5236 50.4967 41.0335 50.208 41.6461C48.4247 45.3329 48.5235 43.9715 49.8573 48.0504C50.5771 50.2265 51.3382 52.3912 51.9806 54.591C52.1023 54.9118 51.6544 55.0229 51.525 54.6622Z" fill="#E5E5E5"/>
<path d="M93.7373 131.773C93.2243 131.185 83.2189 107.227 82.6959 105.799C82.1729 104.372 76.1874 86.0283 75.7441 83.6087C73.8528 83.8384 61.0687 84.3997 59.2907 83.6087C57.9056 83.0138 54.7004 77.9004 54.2065 75.3912C53.1235 78.0053 51.829 80.5267 50.3359 82.9303C49.7999 83.6386 46.6192 83.8346 45.3764 83.4663C45.234 83.9303 39.2761 107.9 38.9017 110.45C38.5272 113.001 34.9767 136.369 34.7393 138.398C34.6559 138.993 43.9377 140.033 43.9974 139.241C44.0571 138.448 50.342 113.832 50.7164 112.856C51.0909 111.88 57.7563 97.6723 60.7119 92.6999C59.3505 89.5789 59.4454 88.6034 56.2877 87.3844C55.8481 87.2121 56.074 86.7894 56.5174 86.9028C58.9309 87.4977 59.7402 88.3239 60.6261 90.2091C63.4684 96.2321 66.3689 105.883 69.5749 110.682C70.5856 112.204 84.8889 135.918 85.797 136.761C86.7051 137.605 94.2358 132.344 93.7373 131.773Z" fill="#E5E5E5"/>
<path d="M39.6565 91.0467C39.3166 90.3698 20.0339 78.5605 18.9283 78.709C17.4734 78.8752 4.1694 95.4418 4.38992 96.4518C4.61044 97.4618 30.9811 112.786 31.8847 112.62C32.7882 112.453 39.9919 91.7198 39.6565 91.0467ZM36.2729 85.8622C35.7323 88.1516 34.9413 87.4081 35.0363 86.9028C35.1894 86.0344 35.423 85.1723 35.6312 84.3216C35.7913 83.7274 36.2668 83.6202 36.4873 83.9831C36.7078 84.3461 36.3502 85.4158 36.2492 85.8622H36.2729ZM28.2399 78.6018C28.4398 78.9847 28.0439 78.9081 27.4788 79.1072C26.0929 79.6125 25.8969 81.6998 25.148 81.2718C24.4934 80.8889 26.5508 78.5069 27.0983 78.2327C27.2988 78.1313 27.5313 78.1132 27.7451 78.1823C27.9589 78.2514 28.1367 78.4022 28.2399 78.6018ZM34.0371 100.757L31.1948 99.2037C30.9999 99.6789 30.744 100.127 30.4337 100.536C29.7345 100.357 29.0777 100.042 28.501 99.608C28.501 99.5605 28.7568 98.853 29.096 98.0445L18.8149 92.4502C18.503 93.0208 18.1239 93.5519 17.6855 94.0322C16.8817 93.7504 16.1375 93.3211 15.491 92.7665C15.777 92.2038 16.1009 91.6612 16.4604 91.1424C15.2353 90.4533 14.0102 89.7565 12.8096 89.0375C12.3632 88.7757 12.8096 88.1631 13.2253 88.3775C14.4918 89.0044 15.7487 89.6505 16.9956 90.3155C17.2911 89.8131 17.6356 89.3412 18.024 88.9066C18.785 89.1754 19.4919 89.5781 20.1113 90.0957C19.909 90.6059 19.6539 91.0935 19.3502 91.5505L29.4574 97.0513C29.6328 96.5101 29.8895 95.9986 30.2185 95.5345C30.9795 95.7978 31.6953 96.1767 32.341 96.6578C32.1498 97.2013 31.9195 97.7302 31.6519 98.2405L34.6251 99.8484C35.1971 100.192 34.632 101.078 34.0371 100.757Z" fill="#B3EE6D"/>
</svg>
