<svg width="154" height="154" viewBox="0 0 154 154" fill="none" xmlns="http://www.w3.org/2000/svg">
<path d="M62.4507 118.783C62.1506 112.7 61.8619 106.585 61.8941 100.469C40.7458 100.253 14.9803 93.4962 11.1042 92.8813C9.20833 92.5804 7.34305 92.7833 5.57732 91.9333C5.54439 96.7734 5.65925 116.36 5.57732 121.302C5.57958 121.352 5.56822 121.403 5.5444 121.448C5.52058 121.493 5.48516 121.531 5.44182 121.557C5.39848 121.584 5.34879 121.599 5.2979 121.6C5.247 121.601 5.19675 121.588 5.15234 121.563C5.4793 125.259 6.43262 130.006 9.01154 127.417C13.0093 123.403 17.6542 122.635 23.4016 128.987C29.1337 135.324 35.8062 139.324 37.333 133.598C39.8017 124.348 58.4928 136.362 61.6 136.378H63.6935C62.8757 130.59 62.7394 124.638 62.4507 118.783Z" fill="#B3EE6D"/>
<path d="M17.8087 72.9642C18.3646 69.8577 20.7552 66.2175 18.5285 63.6761C18.4343 63.5844 18.3735 63.4638 18.3557 63.3335C18.338 63.2032 18.3643 63.0707 18.4304 62.9571C20.2819 60.3215 22.5906 54.4883 19.2804 51.9683C19.2033 51.9234 19.1373 51.8615 19.0875 51.7874C19.0377 51.7134 19.0053 51.629 18.9927 51.5406C18.9801 51.4522 18.9876 51.3621 19.0148 51.2771C19.0419 51.192 19.088 51.1142 19.1494 51.0495C20.11 50.1772 20.7317 48.9939 20.905 47.708C21.0783 46.4221 20.792 45.1164 20.0966 44.021C19.6793 43.3939 18.3271 42.5822 18.265 41.7315C18.1961 40.7836 19.337 39.7682 19.5729 38.854C19.8005 37.9527 19.8156 37.0109 19.6171 36.1028C19.4185 35.1947 19.0118 34.3451 18.4289 33.6211C17.7819 32.863 17.0767 32.6731 17.0223 31.6256C16.958 30.3859 17.788 29.8568 17.1203 27.3093C15.5177 26.5244 14.5039 26.7204 14.0789 27.9632C13.098 29.4678 12.9303 31.8209 12.5743 33.5529C12.0686 35.5886 12.0239 37.7115 12.4433 39.7667C13.1271 43.1688 9.38047 46.3357 11.5934 49.6444C12.3154 50.7225 13.719 50.855 13.719 52.2608C13.719 53.6667 12.5367 55.3337 12.2144 56.7089C11.7167 58.833 11.7243 61.3522 13.294 63.0857C13.9158 63.7749 14.7619 63.9694 14.8308 64.9503C14.9556 66.7168 13.0919 67.9511 14.3408 69.8562C15.3096 71.0838 16.4827 72.1352 17.8087 72.9642Z" fill="#B3EE6D"/>
<path d="M29.9091 50.0388C29.8387 49.5158 29.6833 48.3014 29.2552 47.9131C28.3463 47.0877 27.429 48.0487 26.8348 48.6321C25.874 49.572 25.1946 50.7614 24.873 52.0664C24.4978 53.6323 24.9228 55.2403 24.7743 56.8084C24.6571 58.0527 24.0315 58.9364 23.6954 60.1117C23.0583 62.34 24.6326 64.8821 23.7934 66.9794C23.1088 68.69 21.0942 69.1372 21.2099 73.1932C21.8706 71.95 22.7833 70.8583 23.8899 69.9879C25.5997 68.4611 26.3754 66.9143 27.3892 64.8867C28.2399 63.1861 28.1005 61.2243 27.9451 59.392C27.8762 58.5749 27.5178 57.4616 27.8149 56.6446C28.1717 55.6629 29.0737 54.9508 29.4826 53.9646C29.9708 52.717 30.118 51.362 29.9091 50.0388Z" fill="#B3EE6D"/>
<path d="M39.7863 50.6927L38.6416 40.3555L71.3789 26.9816C71.3789 26.9816 71.7748 33.0001 71.3789 34.798C70.99 36.5652 71.9349 41.6006 73.0796 42.6802C73.0796 42.6802 65.0028 43.3028 61.6 47.4552C58.1681 51.6422 52.5079 59.2939 46.687 56.5795C46.687 56.5795 45.6073 50.6927 48.2896 46.7684C48.2896 46.7355 44.0376 46.1466 39.7863 50.6927Z" fill="#B3EE6D"/>
<path d="M78.8355 50.5618L79.6854 49.973L78.8355 36.9558C78.8355 36.9558 76.2053 39.8295 76.8401 42.6466C77.481 45.4882 78.4756 46.9315 78.8355 50.5618Z" fill="#B3EE6D"/>
<path d="M54.0781 87.2893C54.0781 87.2893 64.6741 90.4617 66.1458 90.2327C67.6175 90.0038 69.0233 88.0742 69.0233 88.0742C69.0233 88.0742 67.7155 85.7518 65.23 86.3406C62.7445 86.9294 60.3241 86.9945 60.7169 83.2012L54.0781 87.2893Z" fill="#B3EE6D"/>
<path d="M75.2056 74.2399L86.1943 67.8301L96.1693 70.7076L83.022 79.4728C83.022 79.4728 80.342 80.5187 79.7187 80.3227C79.0954 80.1267 77.397 79.4728 77.397 79.4728C77.397 79.4728 79.2608 75.5806 75.2056 74.2399Z" fill="#B3EE6D"/>
<path d="M103.985 50.5933C103.985 51.64 104.802 51.9991 105.686 52.163C106.979 58.4663 113.343 60.5858 116.707 57.2979C117.005 57.0069 116.612 56.4518 116.248 56.709C112.33 59.4825 107.811 56.6493 106.73 52.3268H106.96C107.065 52.3252 107.165 52.2854 107.243 52.2151C107.321 52.1447 107.37 52.0486 107.382 51.9445C107.394 51.8404 107.368 51.7355 107.308 51.6493C107.249 51.5632 107.16 51.5016 107.058 51.4761C106.571 51.4368 106.089 51.3491 105.619 51.2143C104.639 50.7893 105.09 50.0014 105.456 49.2525C105.97 48.2012 106.592 47.2195 107.189 46.2433C107.351 45.9806 106.959 45.6544 106.764 45.9163C106.698 46.0222 106.621 46.121 106.534 46.2111C106.829 44.5216 107.222 42.8508 107.712 41.2072C107.726 41.1359 107.713 41.062 107.676 40.9999C107.638 40.9377 107.579 40.8919 107.509 40.8714C107.439 40.8508 107.364 40.8571 107.299 40.8889C107.234 40.9207 107.183 40.9758 107.156 41.0433C106.505 43.0953 106.013 45.1945 105.684 47.3221C105.423 47.682 105.201 48.0794 104.965 48.434C104.438 49.0451 104.098 49.7946 103.985 50.5933Z" fill="#E5E5E5"/>
<path d="M108.989 45.3948C108.554 46.8014 110.166 46.8191 110.166 45.8849V45.5258C110.156 45.3854 110.097 45.2531 109.999 45.1518C109.902 45.0504 109.772 44.9864 109.632 44.9709C109.492 44.9553 109.351 44.9892 109.234 45.0666C109.116 45.1441 109.029 45.2602 108.989 45.3948Z" fill="#E5E5E5"/>
<path d="M108.924 41.7973C108.854 41.8407 108.805 41.9098 108.787 41.9895C108.768 42.0692 108.782 42.153 108.826 42.2223C108.869 42.2917 108.938 42.3409 109.018 42.3593C109.098 42.3777 109.181 42.3637 109.251 42.3203C109.64 42.1503 110.232 42.4513 110.559 42.6802C110.885 42.9092 111.082 43.269 111.477 43.3693C111.534 43.3824 111.592 43.3832 111.649 43.3716C111.705 43.36 111.759 43.3363 111.805 43.3021C111.852 43.2679 111.891 43.2241 111.919 43.1736C111.947 43.1231 111.964 43.0671 111.968 43.0095C111.965 41.9681 109.864 41.1549 108.924 41.7973Z" fill="#E5E5E5"/>
<path d="M111.769 55.4677C112.108 55.2022 112.368 54.8476 112.518 54.4433C112.668 54.0391 112.703 53.6011 112.619 53.1782C112.551 53.0159 112.441 52.8749 112.3 52.7704C112.159 52.6659 111.992 52.6017 111.817 52.5849C111.643 52.5681 111.467 52.5991 111.308 52.6748C111.15 52.7505 111.015 52.8678 110.918 53.0144C110.362 53.1453 110.101 54.0611 110.133 54.5848C110.133 54.7753 110.185 54.9621 110.283 55.1256C110.38 55.2891 110.52 55.4231 110.688 55.5136C110.855 55.604 111.044 55.6475 111.234 55.6394C111.425 55.6314 111.609 55.572 111.769 55.4677ZM111.867 53.6361C111.923 54.0956 111.101 55.3766 110.984 54.555C110.947 54.2939 111.016 53.7701 111.311 53.6721C111.395 53.6455 111.466 53.5866 111.507 53.5083C111.671 53.4072 111.867 53.3743 111.867 53.6361Z" fill="#E5E5E5"/>
<path d="M117.361 62.7933C117.754 61.3545 117.332 59.5544 116.901 58.1493C116.876 58.0672 116.819 57.9981 116.744 57.9561C116.669 57.9142 116.581 57.9024 116.497 57.9233C116.414 57.9442 116.342 57.9962 116.295 58.0687C116.249 58.1411 116.232 58.2286 116.247 58.3131C116.813 61.2596 116.369 61.5176 116.509 62.6953C116.565 63.1547 117.266 63.2841 117.361 62.7933Z" fill="#E5E5E5"/>
<path d="M94.7621 85.1307C101.609 78.5287 107.942 70.9435 116.871 67.1104C117.194 66.971 116.969 66.4212 116.641 66.5545C112.409 68.3505 108.498 70.8248 105.063 73.8801C102.456 76.0331 99.9666 78.3257 97.6068 80.7477C91.724 79.7935 85.716 79.9266 79.8813 81.1406C79.7462 81.1551 79.6174 81.2053 79.5081 81.286C79.3989 81.3668 79.3131 81.4751 79.2595 81.6C78.2858 83.6942 77.8676 86.0037 78.0452 88.3064C78.2228 90.609 78.9901 92.8271 80.2733 94.7473C80.341 94.8438 80.4386 94.9153 80.5509 94.9507C80.6633 94.9861 80.7843 94.9835 80.8951 94.9433C80.9333 94.9691 80.9793 94.9807 81.0252 94.9762C86.0527 95.0597 91.0527 94.2172 95.7752 92.4907C96.3962 92.261 96.1397 91.2602 95.5133 91.5091C90.9569 93.2848 86.1121 94.205 81.222 94.2235V94.1914C79.9946 92.4474 79.2178 90.4267 78.961 88.3096C78.7042 86.1925 78.9754 84.0447 79.7503 82.0579C79.7773 81.9771 79.8245 81.9046 79.8875 81.8474C79.9506 81.7901 80.0272 81.75 80.1102 81.7309C85.6776 80.7872 91.3533 80.666 96.9559 81.371C95.9679 82.4332 95.0501 83.5586 94.2085 84.7402C94.0102 85.0648 94.4957 85.3872 94.7621 85.1307Z" fill="#E5E5E5"/>
<path d="M148.267 70.2827C148.086 69.5569 147.7 68.8985 147.155 68.386C145.241 66.8868 139.848 68.3738 137.671 73.9459C137.069 75.5718 136.726 77.2825 136.657 79.0149C136.389 78.2905 136.138 77.5598 135.905 76.8235C135.169 74.4635 134.986 72.0163 134.008 69.7268C134.56 69.7703 135.115 69.6759 135.623 69.452C136.13 69.2281 136.574 68.8819 136.914 68.4442C137.254 68.0066 137.481 67.4913 137.573 66.9445C137.665 66.3978 137.62 65.8367 137.442 65.3117C138.391 66.0636 139.835 65.3155 140.581 64.3301C142.521 61.7733 141.581 58.4746 139.143 57.7242C139.769 57.2691 140.242 56.6344 140.499 55.9042C140.756 55.1741 140.784 54.383 140.581 53.6361C140.349 52.8963 139.902 52.2426 139.296 51.759C138.69 51.2753 137.953 50.9838 137.18 50.9216C135.97 50.8504 134.826 51.3811 133.616 51.4776C135.281 50.352 135.607 46.629 130.868 44.9368C132.873 41.5125 128.772 36.3126 121.973 39.475C121.602 38.578 121.013 37.7879 120.259 37.1767C119.505 36.5655 118.61 36.1527 117.656 35.9757C116.698 35.8188 115.716 35.9009 114.797 36.2147C113.879 36.5285 113.052 37.0642 112.39 37.7743C110.369 36.5392 106.965 39.7353 108.433 40.4237C109.639 40.9888 110.591 40.0967 111.769 40.0967C113.224 40.0967 111.84 42.0011 112.816 43.4659C113.524 44.5287 115.196 44.9973 117.296 43.6619C116.726 45.0157 118.164 46.9736 118.768 46.8993C119.062 46.8641 119.156 46.1765 119.389 45.9514C119.646 45.7156 119.968 45.564 120.313 45.5172C120.658 45.4704 121.009 45.5305 121.318 45.6895C121.733 45.9578 122.036 46.3687 122.168 46.8447C122.301 47.3207 122.255 47.8289 122.038 48.273C121.811 48.7089 121.467 49.0738 121.046 49.3277C120.625 49.5816 120.142 49.7148 119.651 49.7126C119.351 50.62 119.372 51.6029 119.712 52.4962C120.051 53.3895 120.688 54.1387 121.515 54.6177C120.894 54.9685 120.382 55.484 120.036 56.1073C119.69 56.7306 119.522 57.4375 119.553 58.15C119.716 59.5566 121.253 60.7664 122.594 60.2756C121.795 60.6147 121.088 61.1386 120.531 61.8041C119.974 62.4697 119.583 63.258 119.389 64.1042C118.961 65.9679 120.043 67.6265 122.104 67.5713C122.996 67.5013 123.87 67.2801 124.687 66.9174C122.931 70.4297 127.444 71.9405 129.818 71.0377C130.328 70.8694 130.773 70.5455 131.09 70.1115C131.406 69.6776 131.579 69.1553 131.584 68.6181C132.019 69.1371 132.6 69.5131 133.252 69.697V69.8608C133.972 72.3785 134.275 75.0026 135.051 77.5134C135.527 79.0547 136.097 80.5877 136.588 82.1245C136.62 82.7133 136.621 83.3022 136.653 83.8581C137.088 91.4126 138.366 99.0008 137.802 106.555C137.705 107.83 137.606 109.073 137.507 110.316C137.573 109.76 136.172 108.284 135.806 107.83C132.667 103.92 129.954 103.428 126.976 101.781C125.439 100.93 124.033 100.048 122.234 99.9166C122.167 99.9115 122.1 99.9228 122.038 99.9496C120.947 96.5091 119.419 93.2227 117.492 90.1706C117.599 90.1618 117.698 90.1133 117.771 90.0346C117.844 89.9559 117.884 89.8528 117.885 89.7457C118.404 81.9545 118.438 82.3818 118.31 82.1253C119.749 80.5226 121.156 78.8886 122.561 77.2852C122.607 77.232 122.631 77.1635 122.629 77.0933C122.626 77.0232 122.597 76.9566 122.547 76.9069C122.498 76.8573 122.431 76.8282 122.361 76.8257C122.291 76.8231 122.222 76.8472 122.169 76.8931C119.357 79.7378 116.315 82.4828 113.67 85.4944C112.231 84.0227 110.398 82.1949 108.437 81.8955C106.31 81.5724 104.414 83.4323 103.172 84.9699C99.605 89.3842 98.1501 95.8254 97.3522 101.322C96.5192 107.497 96.7523 113.77 98.0414 119.866C98.0551 119.931 98.0838 119.992 98.125 120.044C98.1663 120.097 98.2191 120.139 98.2793 120.167C98.3395 120.196 98.4055 120.21 98.4721 120.208C98.5387 120.207 98.6041 120.191 98.6631 120.16C99.9427 121.31 101.588 121.97 103.307 122.024C104.744 122.043 106.175 121.856 107.558 121.468C108.312 121.309 108.508 122.134 107.983 122.187C107.229 122.346 106.494 122.588 105.793 122.907C103.427 123.661 100.801 124.269 98.8592 122.711C97.562 121.671 97.634 120.161 95.5559 118.492C94.1801 117.441 92.4781 116.908 90.7487 116.987C90.4831 115.56 90.7756 114.085 91.5657 112.867C91.8452 112.303 92.2753 111.828 92.8085 111.493C94.1156 110.804 95.2588 111.757 95.6539 112.965C95.6919 113.087 95.7758 113.19 95.888 113.251C96.0002 113.312 96.1318 113.328 96.255 113.294C96.3783 113.26 96.4834 113.179 96.5483 113.069C96.6132 112.959 96.6326 112.828 96.6026 112.703C96.5086 112.214 96.2919 111.757 95.9728 111.375C95.6538 110.993 95.2428 110.698 94.7785 110.518C94.3143 110.338 93.8119 110.28 93.3186 110.347C92.8254 110.415 92.3574 110.607 91.9585 110.905C91.0841 111.633 90.4332 112.593 90.081 113.675C89.7288 114.757 89.6895 115.917 89.9677 117.02C87.714 117.31 85.5373 118.032 83.5571 119.146C83.5242 119.146 83.5242 119.179 83.492 119.212C83.0156 118.838 82.4297 118.631 81.8243 118.623C78.8564 118.589 77.9621 122.907 80.2217 124.771C80.4642 124.972 80.741 125.128 81.0387 125.23C80.7927 127.346 81.3924 129.474 82.7072 131.15C85.3481 134.384 91.0382 133.999 92.2893 134.192C101.822 135.659 123.027 136.462 134.25 133.636C138.173 132.648 143.644 128.276 145.861 124.871C150.931 117.057 150.565 77.0938 148.267 70.2827ZM117.623 82.8741C117.393 85.0327 117.231 87.1905 117.067 89.349C116.273 88.2106 115.386 87.1389 114.418 86.1445C114.31 86.0342 114.343 86.3589 117.623 82.8741ZM99.0468 119.568C99.0468 119.197 94.6822 103.701 101.956 88.4332C103.172 85.8849 105.031 82.7149 108.235 83.1352C110.001 83.365 114.376 87.6882 114.711 88.0741C118.354 92.2694 120.256 97.2895 122.102 102.398C122.267 102.858 123.008 102.663 122.854 102.202C122.681 101.682 122.527 101.156 122.364 100.633C122.44 100.642 133.326 103.619 137.372 112.046C136.619 117.442 134.853 122.348 128.9 125.848C127.124 126.634 125.257 127.194 123.341 127.515C121.328 127.734 119.292 127.601 117.324 127.123C113.889 126.085 112.107 121.434 110.488 117.966C112.274 113.175 112.999 108.053 112.614 102.954C112.61 102.875 112.575 102.799 112.518 102.744C112.46 102.689 112.383 102.659 112.303 102.659C112.223 102.659 112.147 102.689 112.089 102.744C112.031 102.799 111.997 102.875 111.993 102.954C111.578 109.003 110.652 114.565 108.33 120.157C107.428 120.157 104.511 121.934 99.0468 119.568ZM81.7791 125.327C82.0963 125.362 82.4164 125.299 82.6969 125.147C82.9774 124.995 83.2048 124.761 83.3489 124.476C83.5786 124.017 82.9836 123.457 82.5969 123.887C81.6582 124.932 79.6704 123.606 80.0456 121.402C80.4981 118.746 83.2907 119.467 83.4469 120.813C83.4515 120.923 83.4984 121.026 83.5776 121.102C83.6569 121.178 83.7624 121.221 83.8722 121.221C83.982 121.221 84.0876 121.178 84.1668 121.102C84.2461 121.026 84.2929 120.923 84.2976 120.813C84.3186 120.441 84.2149 120.073 84.0028 119.767C86.0962 118.883 88.2869 117.904 90.6094 117.968C92.1745 118.074 93.6845 118.589 94.9885 119.461C95.9154 119.997 96.6549 120.805 97.1064 121.775C97.4312 122.49 97.9077 123.125 98.5028 123.637C99.0978 124.148 99.7972 124.524 100.552 124.738C103.201 125.492 105.548 123.902 107.911 122.972C108.334 122.805 108.6 125.523 108.63 125.719C108.853 127.413 108.639 129.135 108.009 130.723C108.004 130.723 108 130.724 107.996 130.725C107.992 130.727 107.988 130.729 107.985 130.732C107.982 130.735 107.98 130.739 107.978 130.743C107.976 130.747 107.976 130.751 107.976 130.756C105.85 132.489 102.809 132.724 100.159 132.946C97.7726 133.148 95.3851 133.143 92.9976 133.11C90.6422 133.184 88.2929 132.829 86.0641 132.064C84.7284 131.539 83.5938 130.604 82.8237 129.394C82.0536 128.183 81.6878 126.759 81.7791 125.327Z" fill="#E5E5E5"/>
<path d="M77.2327 91.8345C77.3466 91.8297 77.4542 91.7811 77.5332 91.6989C77.6121 91.6166 77.6561 91.507 77.6561 91.393C77.6561 91.279 77.6121 91.1695 77.5332 91.0872C77.4542 91.0049 77.3466 90.9563 77.2327 90.9516C73.0488 90.7801 71.6108 86.3014 68.1406 84.7049C67.235 84.2428 66.2063 84.0794 65.2021 84.2381C64.1979 84.3968 63.2698 84.8696 62.5509 85.5885C62.2561 85.8826 62.704 86.3336 63.0103 86.048C66.1765 83.028 69.8099 87.0641 71.9692 89.3183C73.6001 91.0228 74.8452 91.8651 77.2327 91.8345Z" fill="#E5E5E5"/>
<path d="M61.9601 82.447C61.7648 82.7425 62.1936 83.0741 62.4509 82.8398C63.3499 82.0098 64.5335 81.5571 65.7569 81.5753C66.9804 81.5936 68.15 82.0814 69.0238 82.9378C69.0901 82.9968 69.1764 83.0283 69.2651 83.0258C69.3538 83.0233 69.4382 82.9869 69.501 82.9241C69.5637 82.8614 69.6001 82.777 69.6026 82.6883C69.6052 82.5995 69.5737 82.5132 69.5146 82.447C67.5582 80.2854 63.7335 79.7723 61.9601 82.447Z" fill="#E5E5E5"/>
<path d="M63.3987 79.5709C64.3713 79.0138 65.4851 78.7523 66.604 78.8182C67.846 78.9867 68.5543 79.8565 69.6125 80.3558C69.9042 80.4928 70.3614 80.195 70.1033 79.8649C69.71 79.3339 69.2115 78.8896 68.6388 78.5598C68.0661 78.23 67.4317 78.0218 66.7749 77.9482C66.1182 77.8745 65.4534 77.937 64.8219 78.1318C64.1904 78.3265 63.6058 78.6493 63.1047 79.0801C63.0706 79.0984 63.0406 79.1235 63.0165 79.1538C62.9924 79.1841 62.9746 79.2189 62.9644 79.2562C62.9541 79.2936 62.9515 79.3326 62.9567 79.3709C62.962 79.4093 62.9749 79.4462 62.9948 79.4794C63.0147 79.5126 63.0411 79.5414 63.0725 79.5641C63.1038 79.5868 63.1394 79.603 63.1772 79.6115C63.2149 79.6201 63.254 79.6209 63.2921 79.6139C63.3302 79.6069 63.3665 79.5923 63.3987 79.5709Z" fill="#E5E5E5"/>
<path d="M66.3747 76.8893C67.6565 76.4835 68.9238 76.3357 70.07 77.1191C70.9376 77.7057 71.7192 78.4103 72.3924 79.2125C72.5877 79.4422 72.9116 79.1811 72.8519 78.9506C72.5027 77.6489 71.2171 76.6925 70.1045 76.0731C68.9276 75.4176 67.2591 75.7461 66.1473 76.3671C65.8517 76.4965 66.0493 76.9919 66.3747 76.8893Z" fill="#E5E5E5"/>
<path d="M77.4617 80.5189C76.9927 80.3345 76.512 80.181 76.0229 80.0595C76.4304 79.7658 76.7392 79.3554 76.9084 78.8825C77.0777 78.4096 77.0995 77.8964 76.9709 77.4109C76.6332 76.2922 75.4953 75.0371 74.2564 75.2852C73.9609 75.345 74.0267 75.8411 74.3223 75.8082C75.4341 75.7753 76.3193 77.3787 76.088 78.3596C75.9264 79.0487 75.2051 79.4385 74.7472 79.8964C74.6979 79.9517 74.6632 80.0184 74.6462 80.0906C74.6292 80.1627 74.6305 80.2379 74.65 80.3094C74.6694 80.381 74.7065 80.4465 74.7577 80.5C74.8089 80.5536 74.8727 80.5935 74.9433 80.6161C75.7285 80.9257 76.5533 81.1236 77.3936 81.2042C77.4721 81.1931 77.5447 81.1559 77.5996 81.0986C77.6545 81.0413 77.6886 80.9673 77.6965 80.8883C77.7043 80.8093 77.6855 80.73 77.6429 80.663C77.6003 80.5961 77.5365 80.5453 77.4617 80.5189Z" fill="#E5E5E5"/>
<path d="M89.1041 122.969C89.4585 122.512 89.6434 121.946 89.6271 121.367C89.6271 120.779 88.9456 120.678 88.5482 121.007C88.2472 121.224 88.024 121.532 87.912 121.885C87.8 122.239 87.805 122.619 87.9264 122.969C87.9879 123.07 88.0743 123.154 88.1775 123.212C88.2806 123.27 88.3969 123.3 88.5152 123.3C88.6336 123.3 88.7499 123.27 88.853 123.212C88.9561 123.154 89.0426 123.07 89.1041 122.969Z" fill="#E5E5E5"/>
<path d="M95.2199 131.636C96.2391 131.512 97.1829 131.036 97.8878 130.289C98.5926 129.543 99.014 128.573 99.0791 127.548C99.1832 125.194 96.8585 124.014 94.8271 123.525C93.7001 123.256 92.5207 123.302 91.4186 123.66C90.3166 124.018 89.3347 124.673 88.5811 125.554C88.3223 125.85 88.7435 126.304 89.0406 126.013C91.2887 123.781 96.079 123.132 97.674 126.504C98.7253 128.724 96.3983 130.757 94.2076 130.527C92.3431 130.331 91.2979 128.858 90.3155 127.42C89.8913 126.798 88.905 127.39 89.3346 128.008C90.7251 130.011 92.4717 131.989 95.2199 131.636Z" fill="#E5E5E5"/>
<path d="M30.8932 60.7986C31.0053 60.8614 31.1268 60.9056 31.2531 60.9296C31.8067 65.3546 37.6567 68.1526 40.836 66.1296C40.836 66.2061 40.6966 65.9351 42.6997 68.2552C42.6997 68.2881 42.6668 68.2881 42.6668 68.3203C42.6668 70.5117 43.48 72.9965 43.1905 75.1558C43.0236 76.3978 41.6109 76.0356 41.228 77.2163C41.162 77.3476 41.1259 77.4919 41.1223 77.6388C41.1186 77.7857 41.1476 77.9316 41.207 78.066C41.2665 78.2004 41.3549 78.32 41.4661 78.4162C41.5772 78.5123 41.7082 78.5827 41.8498 78.6222C43.0588 78.9208 44.0864 77.5203 44.7273 76.6926C45.745 75.3794 47.0245 72.9712 46.853 72.8012C47.4428 73.371 48.0642 73.9071 48.7144 74.4069C48.6592 74.4147 48.6045 74.4257 48.5505 74.4399C48.2686 74.5235 48.0112 74.6744 47.8005 74.8796C47.5897 75.0847 47.432 75.3379 47.3407 75.6175C47.3179 75.7225 47.3277 75.832 47.3687 75.9314C47.4098 76.0307 47.4801 76.1151 47.5704 76.1734C47.9203 76.3988 48.3314 76.5104 48.7472 76.4928C49.163 76.4753 49.5632 76.3295 49.8928 76.0754C52.1433 74.7576 51.0743 72.6404 50.8408 70.5807C50.748 69.721 50.6714 68.8597 50.6111 67.9971C53.1624 67.5722 55.7414 68.5982 58.2966 68.6863C64.2086 68.8854 69.7493 66.324 72.5235 61.1647C72.5235 62.1785 72.5557 63.1555 72.6215 64.1402C71.182 64.435 69.0227 65.6158 70.136 67.2475C71.1452 68.7223 73.3099 66.8241 74.1254 66.0369C75.2403 64.9611 75.6231 63.5169 76.0228 62.0475C77.2388 57.5696 78.758 52.7334 77.8537 47.9515C77.2648 44.8358 72.1943 40.8947 81.4525 33.7904C83.5762 32.194 85.3373 30.1654 86.6196 27.8385C88.5545 24.2113 86.8814 16.8459 81.9755 16.6208C76.9065 16.391 72.2639 20.7418 71.9676 25.7129C71.7731 28.9832 72.6139 32.2528 72.4584 35.5569C72.3007 37.0597 72.4227 38.5787 72.8183 40.0371C73.2777 41.4092 74.323 42.4874 74.715 43.8656C73.724 43.5875 72.6804 43.5538 71.6736 43.7676C67.1046 44.5755 63.4039 47.0097 60.2928 50.3742C56.5691 54.4011 52.2474 59.9234 46.0658 57.9946C44.954 54.6255 45.0704 50.767 47.0145 47.7248C47.2833 47.3045 46.7557 46.9132 46.3928 47.1039C43.354 48.606 40.6848 50.7614 38.5763 53.4156C37.0206 53.2757 35.4646 53.6817 34.1755 54.5639C32.8865 55.4461 31.9447 56.7495 31.5119 58.2504C30.2362 58.4112 30.0402 60.0789 30.8932 60.7986ZM44.4004 75.5769C44.3849 75.603 44.3615 75.6233 44.3335 75.635C44.3056 75.6467 44.2746 75.649 44.2452 75.6417C44.2158 75.6344 44.1896 75.6179 44.1704 75.5945C44.1511 75.5711 44.14 75.5421 44.1385 75.5118C44.0734 74.5302 43.8108 73.4842 43.7135 72.6021C43.5811 71.3923 43.5175 70.2146 43.3215 69.0033C44.2403 70.05 45.1201 71.1289 46.101 72.1105C45.6189 73.3075 45.0495 74.4673 44.3973 75.5808L44.4004 75.5769ZM75.1721 20.6699C77.1316 18.607 81.843 16.1904 84.2642 18.7403C85.4396 20.0385 86.1511 21.6899 86.2872 23.4359C86.4232 25.1819 85.9762 26.9236 85.0162 28.3883C84.4083 29.3085 83.707 30.1635 82.9235 30.9396C84.1869 25.7879 81.2504 24.0796 77.0688 27.8324C77.0366 26.4587 76.9693 24.4632 75.9899 23.8751C75.0711 23.3215 73.8965 24.0712 73.1445 24.794C73.389 23.2463 74.0958 21.8086 75.1721 20.6699ZM73.2425 29.399C73.0884 28.1955 73.0339 26.9813 73.0794 25.7688C73.1749 25.7656 73.2666 25.7311 73.3405 25.6707C74.5833 24.2641 75.5703 24.1975 76.153 25.9977C76.3556 26.8986 76.4329 27.8231 76.3827 28.7451C76.3842 28.8203 76.4078 28.8934 76.4506 28.9552C76.4934 29.0171 76.5535 29.065 76.6233 29.0929C76.6931 29.1208 76.7697 29.1276 76.8433 29.1123C76.9169 29.097 76.9845 29.0604 77.0374 29.007C77.7893 28.2543 79.4249 26.7136 80.6018 26.8155C83.1539 27.036 82.2749 30.2834 81.7504 31.8845C81.5635 32.4504 82.5513 31.3761 79.1669 34.3348C76.8284 36.3816 75.1086 39.2078 75.2096 42.1512C74.5205 40.7454 73.6062 39.4046 73.509 37.7361C73.339 34.8961 73.5542 32.2161 73.2425 29.4021V29.399ZM38.5763 54.0282C39.2104 54.0228 41.0473 51.1889 45.7059 48.5013C44.4624 51.7395 44.0458 54.9195 45.1822 58.4112C45.2052 58.4892 45.2475 58.5602 45.3051 58.6177C45.3627 58.6752 45.4338 58.7173 45.5119 58.7401C45.59 58.763 45.6726 58.7659 45.7521 58.7486C45.8316 58.7312 45.9055 58.6942 45.967 58.6409C54.0782 61.8783 58.9719 51.986 64.4123 47.9791C66.2435 46.6228 68.3205 45.6346 70.5281 45.0693C71.6766 44.7784 73.6353 44.2186 74.7472 44.7745C74.8122 44.8075 74.8452 44.8404 74.9103 44.8726C74.9414 44.9658 74.9976 45.0487 75.0727 45.1122C75.1477 45.1757 75.2388 45.2173 75.336 45.2324C75.952 45.8563 76.4115 46.6173 76.6768 47.453C76.8227 48.1629 76.8885 48.887 76.8728 49.6116C77.1102 54.7778 75.532 59.8147 74.0274 64.6877C73.9294 64.8516 73.6675 64.8516 73.6675 64.5897C73.6675 61.2542 73.5817 58.0474 73.8643 54.712C73.8612 54.6336 73.8309 54.5588 73.7785 54.5003C73.7262 54.4419 73.6551 54.4036 73.5775 54.392C73.4999 54.3804 73.4207 54.3962 73.3536 54.4367C73.2864 54.4772 73.2355 54.5399 73.2096 54.614C72.838 56.2022 72.63 57.8243 72.5886 59.4548C72.4891 59.4328 72.385 59.447 72.295 59.4948C72.2051 59.5427 72.1351 59.6211 72.0978 59.7159C71.2087 61.6636 69.8709 63.3729 68.1939 64.7038C66.5169 66.0348 64.5484 66.9495 62.4498 67.3731C57.2307 68.5492 53.8508 66.6839 50.6103 67.4052C50.5722 67.0358 50.5505 66.6648 50.5452 66.2934C50.5414 66.2179 50.5087 66.1468 50.4539 66.0947C50.3991 66.0427 50.3264 66.0136 50.2508 66.0136C50.1752 66.0136 50.1025 66.0427 50.0477 66.0947C49.9929 66.1468 49.9602 66.2179 49.9564 66.2934C49.9403 67.733 49.9327 69.171 50.0544 70.6434C50.0896 71.0684 50.6103 74.1098 50.4472 74.2423C49.9235 74.5363 47.013 71.6259 46.915 71.5929C45.0505 69.6633 43.4478 67.5346 41.3253 65.87C41.4233 65.8041 41.4891 65.739 41.5871 65.674C41.9141 65.3792 41.4945 64.8654 41.1277 65.0851C38.0021 66.9642 33.1298 64.9442 32.3304 61.291C31.4031 57.0574 34.7164 54.0611 38.5763 54.0282Z" fill="#E5E5E5"/>
<path d="M35.6329 59.6867C35.9269 59.8498 36.2868 59.6867 36.5808 59.588C37.0717 59.4578 37.5946 59.3269 38.0855 59.163C38.1895 59.1325 38.2773 59.062 38.3293 58.9668C38.3814 58.8717 38.3935 58.7598 38.363 58.6557C38.3326 58.5516 38.262 58.4639 38.1669 58.4119C38.0718 58.3598 37.9598 58.3477 37.8558 58.3781C36.2432 58.7993 36.3243 58.8636 36.0242 58.9011C35.8872 58.5841 35.7778 58.256 35.6972 57.9202C35.5907 57.6041 35.4594 57.2968 35.3044 57.0014C35.1137 56.6714 34.6773 56.9041 34.7163 57.2633C34.8034 57.7891 34.9458 58.3042 35.1413 58.8C35.273 59.0979 35.3381 59.5229 35.6329 59.6867Z" fill="#E5E5E5"/>
<path d="M40.0817 55.2718C40.5419 54.6572 41.0934 54.1167 41.7173 53.6691C41.5871 54.3921 41.5215 55.1252 41.5213 55.8598C41.5213 55.9817 41.5697 56.0985 41.6558 56.1847C41.742 56.2709 41.8588 56.3193 41.9807 56.3193C42.1025 56.3193 42.2194 56.2709 42.3055 56.1847C42.3917 56.0985 42.4401 55.9817 42.4401 55.8598C42.4336 54.835 42.5545 53.8134 42.8 52.8184C42.8235 52.7334 42.8209 52.6432 42.7924 52.5597C42.7639 52.4761 42.7109 52.4031 42.6403 52.3502C42.5697 52.2973 42.4847 52.2669 42.3965 52.263C42.3084 52.2591 42.2211 52.2819 42.1461 52.3284C41.1026 53.0187 40.1942 53.8943 39.4661 54.9119C39.1958 55.2702 39.8175 55.6301 40.0817 55.2718Z" fill="#E5E5E5"/>
<path d="M37.0058 51.6737C37.0372 52.0665 37.6651 52.0994 37.6605 51.6737C37.6146 47.8781 37.0785 40.5425 36.9713 39.41C47.7005 34.1442 59.1395 30.4037 69.7761 24.987C70.3626 24.6884 69.8427 23.8453 69.2523 24.1042C58.4519 28.837 47.4057 33.2927 36.8756 38.6573C36.5632 36.3686 36.4108 36.5317 36.5158 36.5317C47.9777 30.8994 59.8119 26.0587 71.9354 22.0436C72.6536 21.8139 72.3313 20.6799 71.6406 20.9318C59.6005 25.3247 47.7005 30.089 36.319 36.0087C36.259 35.9534 36.1846 35.9164 36.1043 35.9019C36.0241 35.8874 35.9414 35.8961 35.8659 35.927C35.7905 35.9579 35.7254 36.0096 35.6782 36.0762C35.6311 36.1427 35.604 36.2213 35.6 36.3027C35.567 38.8541 36.1566 41.4667 36.3848 43.9882C36.6153 46.535 36.8006 49.0909 37.0058 51.6737Z" fill="#E5E5E5"/>
<path d="M78.5081 53.3091C78.4731 53.379 78.4587 53.4574 78.4664 53.5352C78.4741 53.613 78.5037 53.687 78.5518 53.7487C78.5999 53.8103 78.6645 53.8571 78.7381 53.8835C78.8117 53.9099 78.8913 53.9149 78.9676 53.898C79.5077 53.6697 79.9968 53.336 80.4064 52.9163C80.9002 52.5289 81.3934 52.1728 81.911 51.7716C81.9842 51.7161 82.0368 51.6377 82.0604 51.5489C82.084 51.4601 82.0772 51.366 82.0412 51.2815C82.0412 48.6321 81.7134 45.9506 81.5511 43.3012C81.3865 40.6212 81.4293 37.8999 81.0603 35.2237C81.0603 35.1323 81.024 35.0447 80.9594 34.9801C80.8947 34.9155 80.8071 34.8792 80.7157 34.8792C80.6243 34.8792 80.5367 34.9155 80.4721 34.9801C80.4074 35.0447 80.3711 35.1323 80.3711 35.2237C80.0177 40.6269 80.2261 46.0523 80.9929 51.4124C80.6001 51.6422 80.2088 51.8719 79.8443 52.1315C79.3925 52.4607 78.7325 52.8137 78.5081 53.3091Z" fill="#E5E5E5"/>
<path d="M62.0578 80.061C60.0478 81.4293 57.9995 82.7081 55.9091 83.9531C54.0438 85.0634 52.017 86.8628 49.9572 87.5183C49.2374 87.748 49.6631 88.6623 50.2191 88.5321C52.9986 89.6807 56.0752 90.2932 58.9482 91.0827C60.7093 91.5681 63.0991 92.4212 65.064 92.8484C65.7005 93.0864 66.3855 93.1653 67.0594 93.0781C67.3873 92.9237 67.6861 92.7136 67.9423 92.4571C68.4017 92.1302 68.8328 91.7818 69.316 91.4763C70.0286 91.0344 70.7164 90.5538 71.3765 90.0367C71.7035 89.7756 71.2785 89.2848 70.9171 89.4486C70.1322 89.8736 69.3856 90.3384 68.6276 90.8216C68.0223 91.1256 67.4612 91.5107 66.9599 91.9663C64.3764 91.1164 61.593 90.637 58.9796 89.9755C56.3279 89.3001 53.6816 88.5038 51.0322 87.9479C52.6027 86.7051 54.6885 85.7457 56.331 84.6446C58.3494 83.2908 60.4467 82.0335 62.3801 80.5863C62.6834 80.3612 62.3878 79.8366 62.0578 80.061Z" fill="#E5E5E5"/>
<path d="M86.3902 66.4236C89.0396 67.2085 97.2802 69.5002 98.2948 69.7927C98.3453 69.8073 98.3904 69.8363 98.4246 69.8761C98.4589 69.9159 98.4808 69.9648 98.4877 70.0169C98.4946 70.069 98.4862 70.1219 98.4635 70.1693C98.4408 70.2166 98.4048 70.2563 98.3599 70.2836C93.9187 73.1573 89.5243 76.0639 85.3114 79.2118C85.0487 79.4078 85.3114 79.9009 85.5725 79.6712C90.3475 76.335 100.257 70.1871 100.387 69.4344C100.387 69.1404 99.0467 68.9443 98.5567 68.8134C97.2152 68.4543 88.9217 66.2712 86.0633 65.641C85.9002 65.605 75.5891 71.4222 70.5614 74.3403C70.2314 74.5317 70.5285 74.995 70.8554 74.8311C76.0592 72.2185 86.3252 66.4887 86.3902 66.4236Z" fill="#E5E5E5"/>
<path d="M83.5445 51.6085C90.4045 47.4928 97.7026 44.1382 104.639 40.1619C105.034 39.9322 104.674 39.3824 104.279 39.573C97.0984 43.041 90.099 47.0418 83.2834 51.1836C83.0192 51.3436 83.2803 51.767 83.5445 51.6085Z" fill="#E5E5E5"/>
<path d="M63.1375 112.471C68.3443 110.557 70.2647 109.152 89.4313 98.9947C91.9781 97.6456 94.7461 96.4679 97.1168 94.8086C97.2094 94.7487 97.2756 94.6557 97.3019 94.5486C97.3283 94.4416 97.3127 94.3285 97.2585 94.2325C97.2042 94.1365 97.1153 94.0648 97.01 94.0321C96.9047 93.9995 96.7909 94.0082 96.6918 94.0567C93.5363 95.3637 85.3937 100.726 63.0716 111.684C62.8756 107.856 62.7117 104.064 62.5486 100.237C67.2248 98.2757 71.3367 94.9196 75.99 92.781C76.3491 92.6163 76.0895 92.0336 75.7281 92.16C70.8758 93.856 66.9308 97.52 62.1887 99.4856H62.1558C41.6102 99.3141 20.0477 93.8047 12.4127 92.2879C10.418 91.8927 8.22656 92.0918 6.29696 91.503C8.29165 90.1622 10.2948 88.8016 12.3461 87.5136C12.4198 87.4703 12.4733 87.3994 12.4948 87.3166C12.5162 87.2338 12.5039 87.1459 12.4606 87.0722C12.4172 86.9985 12.3464 86.945 12.2636 86.9235C12.1808 86.9021 12.0929 86.9144 12.0191 86.9577C9.8537 88.2763 4.9225 91.209 4.9225 91.4708C4.13382 102.294 4.28926 114.794 4.9225 121.232C4.92646 121.312 4.9609 121.387 5.0187 121.442C5.07649 121.497 5.15322 121.527 5.233 121.527C5.31278 121.527 5.38951 121.497 5.4473 121.442C5.5051 121.387 5.53954 121.312 5.5435 121.232C5.62543 116.291 5.44549 111.322 5.44549 106.351C5.44549 101.511 5.51134 96.703 5.5435 91.8629C7.27707 92.7136 9.17298 92.5229 11.0712 92.8116C14.1532 93.2795 40.7296 100.183 61.861 100.399C61.8227 104.945 62.0969 112.39 62.1221 112.467C62.7791 126.472 62.8748 131.45 63.7248 136.865C63.7868 137.257 64.3779 137.126 64.3795 136.766C64.3971 130.408 63.848 126.93 63.1375 112.471Z" fill="#E5E5E5"/>
<path d="M110.591 91.3766C113.107 93.4081 114.903 96.8033 116.903 99.324C117.192 99.6885 117.822 99.3562 117.557 98.9641C116.194 96.9407 114.82 94.9243 113.436 92.915C112.742 91.7024 111.793 90.6538 110.657 89.8406C107.937 88.2135 105.303 90.2702 104.181 92.7503C100.745 100.352 100.23 109.959 101.074 118.095C101.166 118.98 102.575 119.014 102.481 118.095C101.818 111.549 102.26 104.938 103.788 98.5384C104.452 95.729 106.303 87.9156 110.591 91.3766Z" fill="#E5E5E5"/>
<path d="M115.658 104.982C118.548 112.209 118.882 114.829 120.499 116.625C122.264 118.587 124.202 117.153 125.372 115.35C126.814 113.048 128.041 110.617 129.034 108.089C129.235 107.601 128.389 107.242 128.184 107.729C127.534 109.197 126.802 110.627 125.993 112.013C125.406 113.061 124.228 115.711 123.049 116.135C121.219 116.792 120.099 113.062 119.648 111.85C117.515 106.108 115.868 100.45 113.336 97.9182C112.818 97.3219 112.122 96.9079 111.35 96.7371C110.579 96.5663 109.773 96.6478 109.052 96.9695C107.258 97.8945 106.899 100.045 106.762 101.842C106.513 105.114 106.393 108.415 106.239 111.686C106.17 113.158 104.906 116.677 106.501 117.704C107.454 118.317 107.539 115.35 107.547 114.957C107.629 111.324 108.021 107.664 108.038 104.034C108.044 102.594 107.909 100.993 108.561 99.651C111.154 94.3239 114.799 102.828 115.658 104.982Z" fill="#E5E5E5"/>
<path d="M125.243 121.563C122.372 123.308 119.848 122.38 117.656 120.059C115.956 118.259 115.441 116.03 114.189 113.976C113.929 113.549 113.373 113.845 113.437 114.303C114.111 119.173 118.933 125.789 124.491 123.525C129.627 121.436 133.086 115.512 133.256 110.117C133.282 109.266 132.04 109.298 131.947 110.117C131.432 114.692 129.308 119.093 125.243 121.563Z" fill="#E5E5E5"/>
<path d="M103.462 57.8873C103.725 57.7932 103.595 57.2916 103.135 57.1683C100.92 56.5749 98.0809 56.6515 97.0854 59.196C96.1849 61.4931 98.1314 63.2841 100.159 63.8729C102.416 64.5269 105.825 64.8576 107.452 62.7933C107.779 62.3859 107.991 61.8993 108.069 61.3831C108.146 60.8669 108.085 60.3394 107.893 59.8543C107.7 59.3691 107.382 58.9437 106.972 58.6212C106.561 58.2987 106.073 58.0907 105.556 58.0183C105.131 57.9517 104.766 58.5826 105.229 58.8031C105.942 59.1439 107.131 60.7006 107.093 61.4525C107.016 62.8967 104.165 63.9916 100.781 63.1202C100.52 63.0529 100.29 62.9571 100.029 62.8905C100.029 62.8254 100.061 62.7925 100.029 62.7274C99.7991 61.4517 99.7011 60.503 100.65 59.4571C101.369 58.542 102.42 58.2618 103.462 57.8873ZM102.35 57.5612C101.454 57.7947 100.639 58.2699 99.9951 58.9348C99.546 58.6464 99.0627 58.4149 98.5564 58.2457C99.5013 57.3973 101.074 57.3973 102.35 57.5612ZM98.0326 58.9678C98.5438 59.1361 99.0368 59.3552 99.5043 59.6217C98.9965 60.405 98.8093 61.3535 98.9813 62.2711C98.4329 61.944 98.0296 61.4204 97.8534 60.8067C97.6772 60.193 97.7413 59.5352 98.0326 58.967V58.9678Z" fill="#E5E5E5"/>
<path d="M40.8983 70.4137C36.1509 73.1886 31.5122 76.2025 26.8681 79.113C26.6813 77.3227 26.1949 75.5765 25.4294 73.9475C25.4294 73.9145 25.3964 73.9145 25.3964 73.8816C25.4592 72.9352 24.0878 72.56 23.1759 72.377C24.3857 70.9382 26.153 69.9267 27.1331 68.3187C28.6654 65.9263 29.3982 63.1091 29.2258 60.2733C29.163 59.1944 28.7893 57.7511 29.1929 56.7089C29.4662 56.0045 30.6178 55.617 31.0903 52.4248C31.32 50.8872 31.1569 47.1566 29.4547 46.3412C28.0167 45.652 25.9585 47.9492 25.2356 48.9254C24.4878 49.9504 23.9946 51.1386 23.7969 52.3918C23.5051 54.2234 24.1269 56.0879 23.5672 57.8858C23.0794 59.4571 22.3719 60.5015 22.4883 62.2359C22.525 62.7918 22.6276 63.3461 22.718 63.9036C23.0089 65.7306 22.9783 66.1594 21.9982 67.6977C21.0956 68.9961 20.5436 70.5055 20.3956 72.0799C20.0035 72.047 19.6107 72.047 19.2187 72.047C19.9377 69.0385 21.7693 65.9641 19.7087 63.2826C21.8022 60.0444 23.5373 54.4524 20.4285 51.4431C21.2441 50.5483 21.7975 49.4461 22.0282 48.2575C22.2589 47.069 22.1579 45.8398 21.7363 44.7048C21.3749 43.7569 19.6084 42.1864 19.6766 41.3357C19.7079 40.9429 20.3657 40.1871 20.5265 39.733C20.8934 38.6613 20.9987 37.5173 20.8336 36.3966C20.6686 35.2759 20.238 34.2108 19.5778 33.2903C18.7255 32.1142 18.3029 32.2107 18.368 30.4779C18.433 28.745 18.5647 25.1454 16.0463 24.918C13.4949 24.6883 12.4536 28.9418 12.0562 30.7374C11.5493 33.0285 10.7828 36.2781 11.0094 38.2598C11.1365 39.3716 11.7583 40.6136 11.5324 41.7262C11.2009 43.3602 10.063 44.6696 9.86469 46.4361C9.65543 47.8649 10.0072 49.3192 10.8463 50.4944C11.0998 50.8275 11.4007 51.084 11.6634 51.3773C12.6389 52.4623 12.387 52.9485 11.8931 54.287C10.7238 57.4555 10.1848 60.608 12.1228 63.3791C12.4191 63.8025 13.6213 64.7206 13.7254 65.2428C13.8495 65.8661 12.9796 67.0101 12.8755 67.7283C12.5983 69.6281 13.6925 71.0645 15.132 72.246C14.6239 72.364 14.1379 72.5626 13.6925 72.8341C13.3891 72.9805 13.1437 73.2246 12.9955 73.5271C12.8474 73.8297 12.8051 74.1732 12.8755 74.5026C10.978 76.9881 11.7591 82.0257 12.6458 84.6736C13.7178 87.8804 15.6543 89.8422 19.1865 89.9386C25.3023 90.1056 27.2319 84.9025 26.839 79.7677C31.8386 77.2384 36.6371 74.3299 41.1924 71.0676C41.6219 70.7452 41.2904 70.184 40.8983 70.4137ZM23.7609 66.9795C24.6032 64.8822 22.9952 62.3323 23.6629 60.1118C24.0166 58.9326 24.63 58.0497 24.7425 56.8085C24.8872 55.2043 24.4791 53.6361 24.8405 52.0664C25.1646 50.7622 25.844 49.5735 26.8031 48.6322C27.3911 48.0433 28.3391 47.0962 29.2227 47.9132C29.6477 48.3052 29.7893 49.5135 29.8766 50.0388C30.0955 51.3641 29.9363 52.7242 29.4172 53.9631C29.0206 54.9424 28.1063 55.663 27.7495 56.6431C27.4531 57.4601 27.8115 58.5734 27.8804 59.3905C28.0336 61.2228 28.1806 63.1869 27.3245 64.8852C26.3168 66.883 25.5381 68.4634 23.8252 69.9864C23.0507 70.6292 22.3586 71.3653 21.7647 72.1779C21.5686 72.145 21.3726 72.145 21.2087 72.1128C21.4882 68.9137 23.1131 68.5997 23.7609 66.9795ZM14.8985 64.9518C14.8296 63.971 13.9796 63.7742 13.3609 63.0873C11.792 61.3538 11.7805 58.866 12.2821 56.7105C12.6021 55.3322 13.7867 53.669 13.7867 52.2624C13.7867 50.8236 12.3839 50.7233 11.6603 49.646C9.41522 46.3029 13.1917 43.1711 12.511 39.7683C12.0803 37.7141 12.1251 35.5887 12.6419 33.5545C13.0034 31.8546 13.1978 29.4962 14.1458 27.9648C14.5386 26.7542 15.5524 26.526 17.1872 27.3109C17.8664 29.461 17.0463 30.4625 17.0892 31.6272C17.1267 32.641 17.8358 32.8431 18.4958 33.6226C19.0843 34.3437 19.4949 35.193 19.6944 36.1021C19.8939 37.0111 19.8768 37.9543 19.6444 38.8555C19.4032 39.7683 18.2661 40.7851 18.3358 41.7331C18.3978 42.5838 19.7393 43.3702 20.1674 44.0226C20.8614 45.119 21.1465 46.4251 20.9724 47.711C20.7983 48.9969 20.1762 50.1802 19.2156 51.0526C19.1539 51.1172 19.1077 51.195 19.0804 51.28C19.0532 51.365 19.0455 51.4552 19.058 51.5436C19.0705 51.632 19.1029 51.7164 19.1528 51.7905C19.2026 51.8647 19.2686 51.9265 19.3458 51.9715C22.6559 54.4914 20.3473 60.3246 18.4958 62.9602C18.43 63.0739 18.404 63.2063 18.4217 63.3365C18.4395 63.4667 18.5 63.5873 18.5938 63.6792C20.5717 65.948 18.8879 69.076 18.103 71.9535C17.5803 71.9206 17.056 71.9206 16.5333 71.9535C11.9038 68.5698 15.0624 67.2857 14.8985 64.9518ZM19.5747 88.8911C16.0432 88.8911 14.2744 86.7992 13.3288 83.6261C12.6075 81.2064 12.1511 77.4452 13.3939 74.9919C16.2393 76.5294 20.2325 76.4146 22.8122 75.9406C23.5334 75.7975 24.2011 75.4581 24.7418 74.9597C26.9332 79.9966 26.8681 88.8911 19.5747 88.8911Z" fill="#E5E5E5"/>
</svg>
