<svg width="154" height="154" viewBox="0 0 154 154" fill="none" xmlns="http://www.w3.org/2000/svg">
<path d="M23.1805 53.6237C8.69321 46.864 15.9759 40.847 21.2892 46.5409C10.9827 35.1463 20.3987 36.3783 21.9661 38.615C15.0448 28.7625 22.3252 29.7089 23.4478 31.2542C23.1088 29.6076 23.2242 27.8998 23.7816 26.3138C23.8968 26.0274 24.1052 25.7883 24.3733 25.6353C24.6413 25.4822 24.9531 25.4241 25.2583 25.4705C25.5634 25.5168 25.844 25.6649 26.0545 25.8906C26.265 26.1164 26.393 26.4066 26.418 26.7142C26.5474 28.3222 26.5298 28.8958 26.6569 30.8445C32.0628 23.9646 32.2864 31.3039 29.3859 35.1417C34.2137 33.1723 31.7458 38.7275 30.1516 40.4328C35.3952 36.9541 32.9472 44.3103 31.3668 46.3747C38.4956 42.2544 37.4389 46.485 36.1862 48.093C34.9779 49.701 30.4854 52.9438 29.3859 53.6237H23.1805Z" fill="#B3EE6D"/>
<path d="M64.52 48.4413C63.6394 44.0622 59.4387 45.991 57.617 48.2966C57.65 41.6685 57.9318 34.6546 56.4899 32.9777C52.5342 29.6422 45.2194 34.2074 46.3526 39.3285C36.3287 36.8683 40.4827 50.1251 41.462 53.5532H63.7206C64.5833 51.9974 64.8666 50.1862 64.52 48.4413Z" fill="#B3EE6D"/>
<path d="M54.917 127.926C54.9098 127.954 54.8935 127.979 54.8706 127.997C54.8478 128.015 54.8196 128.024 54.7906 128.024H49.8809C49.8809 127.88 49.8441 127.849 49.449 125.328C49.446 125.308 49.4476 125.288 49.4537 125.269C49.4598 125.25 49.4703 125.233 49.4842 125.219C50.6028 124.056 51.7845 122.955 53.0241 121.922C53.5142 121.514 52.8044 120.816 52.3235 121.222C51.3225 122.055 50.3607 122.932 49.4383 123.852C49.421 123.869 49.3993 123.88 49.3757 123.886C49.3522 123.891 49.3276 123.889 49.3048 123.881C49.282 123.874 49.2618 123.859 49.2466 123.841C49.2314 123.822 49.2217 123.799 49.2185 123.775C49.0914 122.884 48.9717 121.993 48.8594 121.101C48.8568 121.076 48.8609 121.052 48.8713 121.029C48.8817 121.007 48.898 120.988 48.9184 120.974C48.9842 120.93 49.6902 120.18 52.4345 117.309C52.8741 116.849 52.175 116.147 51.7347 116.608C50.7867 117.599 49.8395 118.59 48.8931 119.582C48.8757 119.599 48.854 119.61 48.8305 119.615C48.807 119.62 48.7826 119.619 48.7599 119.611C48.7372 119.603 48.7171 119.589 48.7019 119.57C48.6866 119.552 48.6767 119.53 48.6734 119.506C48.56 118.524 48.4579 117.541 48.3671 116.556C48.3648 116.531 48.37 116.505 48.3821 116.483C48.3943 116.46 48.4127 116.442 48.4352 116.43C49.4473 115.322 50.5267 114.277 51.6673 113.302C52.1596 112.895 51.4544 112.198 50.9674 112.601C50.0752 113.338 49.2312 114.131 48.4406 114.975C48.4236 114.994 48.4015 115.007 48.3771 115.014C48.3526 115.02 48.3267 115.019 48.3028 115.011C48.2788 115.003 48.2578 114.988 48.2423 114.968C48.2267 114.948 48.2174 114.924 48.2155 114.898C48.1317 113.895 48.0585 112.892 47.9957 111.889C47.9943 111.868 47.9979 111.847 48.0063 111.828C48.0147 111.809 48.0276 111.792 48.0439 111.779C48.1971 111.654 49.0861 110.434 51.1405 108.195C51.5708 107.726 50.8709 107.023 50.4391 107.496C49.6458 108.361 48.8735 109.245 48.122 110.148C48.1053 110.168 48.0828 110.182 48.0577 110.19C48.0326 110.197 48.0059 110.196 47.9811 110.188C47.9564 110.18 47.9346 110.164 47.9188 110.143C47.903 110.122 47.8937 110.097 47.8923 110.071C47.8454 109.153 47.8063 108.234 47.7752 107.315C47.7545 106.678 46.7644 106.676 46.7866 107.315C46.8198 108.34 46.8645 109.365 46.9206 110.391C46.9212 110.415 46.9151 110.438 46.903 110.459C46.891 110.48 46.8735 110.497 46.8525 110.508C46.8314 110.519 46.8076 110.525 46.7837 110.524C46.7598 110.522 46.7367 110.514 46.7169 110.501L45.1021 109.394C44.5745 109.033 44.0783 109.891 44.6013 110.249L46.9566 111.864C47.0546 111.931 46.9712 111.816 47.2323 114.97C47.2342 114.994 47.2294 115.018 47.2183 115.04C47.2073 115.061 47.1904 115.079 47.1696 115.092C47.1489 115.104 47.125 115.111 47.1008 115.11C47.0765 115.11 47.0529 115.103 47.0324 115.09L44.9757 113.77C44.4397 113.422 43.9405 114.279 44.4757 114.625C47.534 116.602 47.3609 116.463 47.3693 116.553C47.4714 117.631 47.585 118.706 47.7101 119.78C47.7127 119.803 47.7092 119.826 47.6998 119.848C47.6903 119.869 47.6754 119.887 47.6565 119.901C47.6376 119.914 47.6154 119.922 47.5922 119.924C47.569 119.927 47.5458 119.922 47.5248 119.912C46.7248 119.51 45.987 118.994 45.3341 118.381C44.8693 117.941 44.1671 118.645 44.6342 119.081C45.5594 119.946 46.6337 120.637 47.805 121.119C47.9268 121.17 47.8249 121.01 48.2782 124.141C48.2821 124.165 48.279 124.189 48.2693 124.212C48.2597 124.234 48.244 124.254 48.2239 124.267C48.2038 124.281 48.1802 124.289 48.1558 124.29C48.1314 124.291 48.1072 124.285 48.086 124.273C47.5195 123.956 46.9718 123.606 46.4459 123.225C45.9267 122.853 45.4328 123.712 45.9459 124.082C46.7288 124.651 47.5603 125.15 48.4306 125.573C48.5371 125.618 48.462 125.502 48.8671 127.87C48.8731 127.905 48.8652 127.94 48.8451 127.969C48.825 127.998 48.7944 128.017 48.7599 128.024H34.1968C34.1635 128.024 34.1315 128.011 34.1074 127.988C34.0833 127.965 34.0689 127.934 34.0674 127.901C33.9938 126.592 33.9259 125.282 33.8637 123.972C33.8629 123.951 33.8675 123.929 33.8772 123.91C33.8868 123.891 33.9011 123.875 33.9188 123.863C35.1308 122.909 36.256 121.849 37.2811 120.696C37.703 120.22 37.0039 119.516 36.5797 119.994C35.7825 120.894 34.9211 121.734 34.0023 122.509C33.9836 122.526 33.9605 122.537 33.9357 122.541C33.9108 122.545 33.8854 122.542 33.8623 122.532C33.8392 122.522 33.8194 122.506 33.8052 122.485C33.7911 122.464 33.7832 122.44 33.7825 122.415C33.6967 120.628 33.6156 118.841 33.539 117.055C33.538 117.036 33.5411 117.018 33.5481 117.001C33.5551 116.984 33.5659 116.968 33.5796 116.956C33.7021 116.837 33.8154 116.709 33.9219 116.607L36.9281 113.741C37.3875 113.302 36.6899 112.6 36.2282 113.042L33.4808 115.66C33.2756 110.771 33.271 111.051 33.3529 110.989C33.6033 110.764 33.8377 110.521 34.0543 110.264L37.1631 107.115C37.6111 106.661 36.9112 105.959 36.4625 106.414L33.4617 109.46C33.4435 109.476 33.4209 109.488 33.3965 109.492C33.3721 109.497 33.3469 109.494 33.3239 109.485C33.3009 109.476 33.2809 109.46 33.2664 109.44C33.2519 109.42 33.2434 109.396 33.2419 109.371C33.2067 108.364 33.0941 104.897 33.0719 104.171C33.0719 104.094 32.8575 104.354 36.1731 100.849C36.6126 100.39 35.9127 99.6844 35.4732 100.148L33.2442 102.491C33.2268 102.511 33.2038 102.525 33.1782 102.532C33.1526 102.538 33.1256 102.537 33.1007 102.528C33.0758 102.519 33.0543 102.503 33.0389 102.481C33.0235 102.459 33.015 102.434 33.0145 102.407L32.9463 99.931C32.9413 99.8033 32.887 99.6825 32.7949 99.5939C32.7028 99.5053 32.5799 99.4558 32.4521 99.4558C32.3243 99.4558 32.2014 99.5053 32.1093 99.5939C32.0171 99.6825 31.9628 99.8033 31.9578 99.931C31.9864 101.008 32.0163 102.085 32.0474 103.163C31.8292 102.926 29.4233 100.504 29.4999 100.581C29.4061 100.493 29.2817 100.445 29.1532 100.447C29.0246 100.449 28.9019 100.501 28.811 100.592C28.72 100.683 28.6679 100.806 28.6657 100.934C28.6635 101.063 28.7114 101.187 28.7992 101.281L30.7135 103.212C31.0659 103.668 31.5046 104.049 32.0045 104.335C32.1293 104.381 32.0627 104.016 32.2511 109.372C32.2522 109.397 32.2462 109.422 32.2338 109.443C32.2214 109.465 32.2032 109.482 32.1812 109.494C32.1592 109.506 32.1343 109.511 32.1096 109.509C32.0848 109.507 32.0611 109.498 32.0413 109.483L29.3092 107.378C28.8115 106.995 28.1009 107.688 28.6093 108.078L32.2587 110.901C32.3391 110.965 32.2848 110.652 32.4999 115.807C32.5015 115.833 32.4957 115.858 32.4831 115.88C32.4705 115.902 32.4517 115.92 32.429 115.932C32.4063 115.944 32.3807 115.948 32.3554 115.946C32.33 115.943 32.306 115.933 32.2863 115.917C31.5551 115.22 30.7111 114.653 29.7901 114.238C29.1928 114.019 28.9332 114.973 29.5267 115.194C30.6033 115.598 31.7319 116.919 32.48 117.217C32.5038 117.226 32.5243 117.242 32.5393 117.263C32.5542 117.283 32.5629 117.308 32.5643 117.333C32.6408 118.995 32.794 122.436 32.794 122.436C32.7958 122.462 32.7897 122.488 32.7764 122.511C32.7632 122.534 32.7434 122.552 32.7197 122.563C32.6961 122.575 32.6695 122.578 32.6436 122.575C32.6176 122.571 32.5934 122.559 32.5742 122.541C32.2488 122.265 30.5382 120.738 30.617 120.808C30.1423 120.386 29.4394 121.084 29.9172 121.509C32.7863 124.062 32.5336 123.892 32.8032 124.036C32.9073 124.09 32.8529 123.84 33.0673 127.895C33.0692 127.929 33.0575 127.963 33.0347 127.988C33.0119 128.014 32.9798 128.03 32.9456 128.032H4.10189C4.08446 128.032 4.06725 128.028 4.05124 128.021C4.03524 128.014 4.02076 128.004 4.00865 127.992C3.99655 127.979 3.98705 127.964 3.98071 127.948C3.97436 127.932 3.97131 127.915 3.97172 127.897C4.00541 125.91 4.70374 121.461 6.30178 120.495C7.95573 119.5 10.1763 119.964 11.7261 121.118C13.0899 122.256 14.2083 123.659 15.0133 125.242C15.028 125.267 15.0502 125.285 15.0765 125.296C15.1027 125.306 15.1317 125.308 15.1591 125.301C15.1864 125.293 15.2106 125.278 15.2281 125.255C15.2456 125.233 15.2554 125.206 15.256 125.177C15.2104 123.007 15.3848 120.838 15.7767 118.703C16.9674 113.156 20.5693 110.375 24.8122 110.344C24.8312 110.344 24.8499 110.34 24.8671 110.332C24.8843 110.324 24.8995 110.312 24.9116 110.297C24.9238 110.283 24.9325 110.265 24.9373 110.247C24.9421 110.229 24.9428 110.209 24.9393 110.191C24.1391 106.042 23.6881 101.755 25.2838 97.9103C25.6653 96.9546 26.2036 96.0692 26.8765 95.2908C29.9892 91.7915 36.4625 91.3726 39.1946 94.8528C42.1464 98.617 40.3546 106.574 39.4932 110.974C39.1226 112.868 38.7813 114.763 38.4694 116.66C38.4654 116.684 38.4679 116.708 38.4768 116.73C38.4857 116.753 38.5005 116.772 38.5197 116.786C38.5389 116.8 38.5617 116.809 38.5855 116.811C38.6094 116.813 38.6333 116.809 38.6547 116.798C39.896 116.185 41.3011 115.986 42.664 116.229C42.6842 116.233 42.705 116.231 42.7246 116.225C42.7443 116.22 42.7622 116.209 42.7771 116.195C42.792 116.181 42.8034 116.163 42.8103 116.144C42.8173 116.125 42.8196 116.104 42.8172 116.084C42.5109 113.837 42.2245 111.555 41.9871 109.14C41.7574 106.825 41.592 104.273 42.9596 102.393C44.4099 100.402 47.3242 99.8207 49.6274 100.688C50.7624 101.177 51.7852 101.893 52.6327 102.792C53.4803 103.691 54.1347 104.754 54.5556 105.916C55.4729 108.202 56.8634 120.487 54.917 127.926Z" fill="#E5E5E5"/>
<path d="M80.5525 78.6856C80.5525 78.6856 91.0528 77.4965 95.9082 80.2706C95.9082 80.2706 101.072 98.4403 103.097 101.591C105.121 104.742 106.509 106.525 108.292 107.615L110.175 121.337H55.7832V112.667C55.7832 112.667 67.0775 115.838 71.0401 98.7971C72.1832 93.8888 72.8142 88.8751 72.9229 83.8366C72.9229 83.8366 77.1841 89.3849 81.0464 87.9017C85.9631 86.0089 80.5525 78.6856 80.5525 78.6856Z" fill="#B3EE6D"/>
<path d="M81.344 57.2424C81.344 57.2424 77.778 59.1261 78.0744 62.7908C78.1551 63.8392 78.5207 64.8456 79.1317 65.7014C79.7428 66.5571 80.5761 67.2296 81.5415 67.6462L74.3094 66.4593C74.3094 66.4593 70.9035 66.604 71.5352 62.7931C72.1294 59.2272 74.3094 58.7279 74.3094 58.7279L81.344 57.2424Z" fill="#B3EE6D"/>
<path d="M87.9976 61.4761C85.9861 55.6039 78.8443 59.2226 80.6468 64.1776C82.6254 68.1072 89.5222 65.928 87.9976 61.4761ZM85.284 62.7656C84.555 62.7779 84.3835 61.0542 85.284 60.9409C86.0137 60.9287 86.1852 62.6515 85.284 62.7656Z" fill="#B3EE6D"/>
<path d="M65.6417 63.7954C64.3002 63.5611 65.7512 69.1072 67.5828 69.232C57.8047 78.2674 52.6414 86.701 50.5449 93.744L51.2478 93.9462C54.0442 84.3901 62.6378 76.1311 69.0576 68.9433C63.7374 66.0045 67.7643 64.1668 65.6417 63.7954Z" fill="#E5E5E5"/>
<path d="M68.5139 60.6659C66.5996 57.4737 66.9465 68.4173 69.0461 66.4042C68.6747 64.5917 67.5706 62.6353 68.5139 60.6659Z" fill="#E5E5E5"/>
<path d="M71.1859 58.8872C68.1659 61.6997 69.3772 67.3744 70.5564 66.2925C70.9753 65.807 70.4462 65.3874 70.3742 64.761C69.3926 60.8566 73.7127 58.473 71.1859 58.8872Z" fill="#E5E5E5"/>
<path d="M84.2454 69.3622C82.1137 69.938 83.7638 72.7367 85.4001 72.2183C86.9315 71.5176 85.6237 69.2312 84.2454 69.3622ZM84.2263 71.0015C83.7967 70.2779 84.456 69.9027 84.9851 70.562C85.8029 71.5375 84.7217 71.6409 84.2263 71.0015Z" fill="#E5E5E5"/>
<path d="M99.293 54.2646C95.9407 54.407 92.5895 54.5901 89.2392 54.8136C89.0799 52.3971 89.6473 49.5019 88.5799 47.2614C85.6871 41.6587 76.6179 39.9236 72.1002 43.7743C69.0971 46.0072 67.1085 49.9981 67.6882 53.2998L69.4394 53.0801C69.496 53.5341 69.5795 54.2677 69.6691 54.9216L67.9952 55.1666L68.3781 56.9377C67.2801 57.0472 59.5081 58.0534 63.2639 58.7395C89.5891 54.3435 102.723 56.3313 99.293 54.2646ZM87.6435 52.2868C87.7736 51.8817 87.2951 50.5838 88.2338 50.7309C88.1404 51.1949 88.583 52.4254 87.6435 52.2868ZM86.6909 50.9246L86.6526 52.433L72.3047 54.5311C72.248 54.0923 72.1684 53.3825 72.0849 52.7462L86.6909 50.9246ZM70.4134 52.9553L71.1132 52.8703C71.0627 53.4683 71.8169 54.9377 70.64 54.7777C70.5629 54.1697 70.4874 53.5622 70.4134 52.9553Z" fill="#E5E5E5"/>
<path d="M96.8989 58.6591C91.0466 56.9309 89.9355 64.7619 94.8698 66.1516C99.2267 66.7703 101.419 59.9938 96.8989 58.6591ZM96.5276 62.6608C95.8055 62.6722 95.6363 60.9693 96.5276 60.8575C97.2481 60.8468 97.4173 62.5482 96.5276 62.6608ZM99.7435 59.1385C98.2665 57.1476 93.4195 55.6215 91.3835 58.7908C90.8969 58.4892 90.3361 58.3287 89.7636 58.3273C89.1911 58.326 88.6294 58.4838 88.1414 58.7832C84.4844 53.8589 76.9697 59.5489 79.1987 64.7029C82.5196 70.4596 91.3023 67.0521 89.032 60.5543C89.2711 60.4312 89.5332 60.3594 89.8016 60.3433C90.07 60.3272 90.3389 60.3672 90.591 60.4609C89.169 73.0676 105.403 66.7535 99.7413 59.1362L99.7435 59.1385ZM86.2096 66.51C78.1182 68.7918 77.4888 59.1477 83.3665 57.6331C88.7027 56.7395 91.0113 64.6861 86.2096 66.51ZM100.01 63.3889C96.794 70.8309 89.2357 65.716 91.189 60.3192C93.4724 55.1047 101.809 58.2349 100.006 63.3889H100.01Z" fill="#B3EE6D"/>
<path d="M88.4392 68.4609C87.3925 68.5926 88.149 72.85 87.5602 73.9182C85.2424 76.1219 79.5967 73.8493 77.8165 73.3493C76.2192 74.4105 79.7575 74.8554 80.4819 75.2635C80.3438 76.5279 80.4451 77.807 80.7805 79.0339C80.7805 79.0339 81.5003 79.5033 81.6695 78.9436C81.4023 78.5155 81.5669 77.5729 81.475 75.5017C88.7363 77.0997 90.015 73.1586 88.4392 68.4609Z" fill="#E5E5E5"/>
<path d="M147.417 71.1976C145.969 70.3301 144.028 70.7382 142.67 71.7474C141.476 72.7428 140.498 73.9703 139.794 75.3555C139.785 75.3825 139.766 75.4052 139.741 75.4188C139.717 75.4324 139.687 75.436 139.66 75.4287C139.633 75.4214 139.609 75.4038 139.594 75.3796C139.58 75.3555 139.575 75.3265 139.581 75.2988C139.621 73.3995 139.469 71.5009 139.125 69.6325C138.077 64.7473 134.891 62.3368 131.224 62.3199C131.207 62.3205 131.19 62.3172 131.175 62.3103C131.16 62.3034 131.146 62.293 131.136 62.2801C131.125 62.2671 131.117 62.2519 131.114 62.2356C131.11 62.2193 131.11 62.2023 131.113 62.1859C131.812 58.5572 132.207 54.8075 130.812 51.4445C130.34 50.2194 129.55 49.1421 128.524 48.3236C127.498 47.505 126.272 46.9748 124.972 46.7874C122.686 46.3717 120.079 46.9406 118.644 48.7645C117.819 49.9404 117.349 51.3281 117.288 52.7631C116.897 57.0603 118.082 60.5619 119.279 67.8476C119.284 67.8687 119.283 67.8907 119.275 67.9109C119.268 67.9312 119.254 67.9487 119.237 67.9614C119.219 67.9742 119.199 67.9815 119.177 67.9825C119.155 67.9835 119.134 67.9781 119.115 67.9671C118.016 67.4236 116.771 67.2491 115.564 67.4694C115.344 67.4303 115.575 67.6685 116.201 61.2671C116.399 59.241 116.547 57.012 115.35 55.3642C114.66 54.531 113.724 53.938 112.676 53.6702C111.628 53.4025 110.523 53.4739 109.518 53.8741C108.525 54.3013 107.631 54.9273 106.889 55.7135C106.148 56.4997 105.575 57.4295 105.207 58.4454C104.604 59.9478 103.764 66.4288 104.115 72.3164C104.115 72.3164 101.385 69.1838 100.057 67.5995L99.2758 68.2994C100.764 69.9725 106.493 76.4474 107.64 77.7943C116.387 88.0648 125.132 100.287 119.793 106.585C103.473 120.467 96.8477 76.4589 95.4709 76.7406C94.5077 76.9351 95.5031 78.1404 95.7343 80.5861C97.5468 88.5189 99.7926 96.3291 104.045 103.218C112.496 117.111 127.93 108.055 120.392 94.1055C117.353 88.1582 113.223 82.8893 108.867 77.7897H109.289C109.289 77.7589 109.291 77.7281 109.297 77.6978C109.427 76.9438 109.55 76.1881 109.667 75.4305C109.669 75.4132 109.668 75.3953 109.663 75.3785C109.658 75.3618 109.648 75.3465 109.636 75.334C108.658 74.3168 107.625 73.3546 106.54 72.4519C106.111 72.0935 106.728 71.484 107.153 71.8393C108.032 72.5678 108.874 73.3347 109.68 74.1403C109.694 74.1569 109.713 74.1689 109.734 74.1748C109.755 74.1806 109.777 74.1801 109.798 74.1732C109.819 74.1663 109.837 74.1533 109.85 74.136C109.864 74.1187 109.872 74.0978 109.873 74.076C109.984 73.2965 110.089 72.5165 110.187 71.7359C110.197 71.6471 110.127 71.6287 110.064 71.5644L107.06 68.4204C106.677 68.0169 107.29 67.4028 107.673 67.8078C110.349 70.6073 110.164 70.4488 110.241 70.4503C110.255 70.4507 110.27 70.4483 110.283 70.4431C110.297 70.4379 110.309 70.4301 110.319 70.4201C110.33 70.4102 110.338 70.3982 110.344 70.385C110.35 70.3718 110.353 70.3575 110.353 70.3431C110.455 69.484 110.546 68.6246 110.624 67.7649C110.635 67.6631 110.548 67.67 110.455 67.5636C109.62 66.6101 108.71 65.7254 107.733 64.918C107.303 64.5627 107.92 63.954 108.346 64.3054C110.163 65.8162 110.474 66.4318 110.634 66.428C110.648 66.4278 110.662 66.4247 110.675 66.419C110.689 66.4133 110.701 66.4049 110.711 66.3945C110.721 66.3841 110.728 66.3719 110.734 66.3584C110.739 66.345 110.741 66.3306 110.741 66.3162C110.813 65.4372 110.877 64.5581 110.933 63.6791C110.933 63.6025 110.873 63.5788 110.824 63.5168C109.979 62.4662 109.1 61.4437 108.186 60.4493C107.811 60.0389 108.421 59.424 108.799 59.8367C110.866 62.1048 110.79 62.2104 110.922 62.2059C110.936 62.2054 110.95 62.202 110.963 62.196C110.976 62.19 110.988 62.1814 110.998 62.1708C111.008 62.1602 111.016 62.1478 111.021 62.1342C111.026 62.1206 111.028 62.1062 111.027 62.0918C111.069 61.2903 111.103 60.4868 111.13 59.6813C111.147 59.1239 112.014 59.1208 111.996 59.6813C111.966 60.5787 111.926 61.4749 111.878 62.3697C111.875 62.3916 111.879 62.4139 111.889 62.4336C111.899 62.4533 111.914 62.4696 111.934 62.4803C111.953 62.491 111.975 62.4957 111.997 62.4938C112.019 62.4918 112.04 62.4833 112.057 62.4693L113.471 61.5006C113.934 61.1852 114.367 61.9356 113.91 62.2487C111.66 63.7894 111.804 63.6707 111.801 63.748C111.632 66.428 111.571 66.392 111.628 66.4686C111.646 66.4911 111.672 66.5058 111.701 66.5095C111.729 66.5132 111.758 66.5057 111.781 66.4885L113.579 65.3284C114.05 65.0222 114.485 65.7741 114.018 66.0765L111.537 67.6792C111.449 67.7351 111.527 67.6447 111.188 70.5889C111.184 70.6096 111.186 70.631 111.193 70.6507C111.201 70.6703 111.214 70.6873 111.232 70.6996C111.249 70.7119 111.269 70.719 111.29 70.72C111.311 70.721 111.332 70.7159 111.35 70.7053C112.05 70.3536 112.695 69.9022 113.265 69.3653C113.67 68.9824 114.285 69.595 113.877 69.9779C113.068 70.7336 112.128 71.3363 111.104 71.7566C111.085 71.7641 111.069 71.7765 111.057 71.7924C111.045 71.8083 111.037 71.8271 111.035 71.847C110.709 74.4504 110.652 74.409 110.706 74.4864C110.714 74.4985 110.724 74.509 110.736 74.5171C110.748 74.5253 110.761 74.531 110.776 74.5338C110.79 74.5367 110.805 74.5366 110.819 74.5338C110.833 74.5309 110.847 74.5252 110.859 74.517C111.354 74.2374 111.833 73.9306 112.294 73.5982C112.749 73.2704 113.182 74.0224 112.733 74.3455C112.049 74.8431 111.322 75.2787 110.56 75.6472C110.542 75.6545 110.526 75.6662 110.515 75.6814C110.503 75.6966 110.495 75.7146 110.492 75.7337C110.248 77.39 110.174 77.648 110.175 77.6832C110.175 77.6977 110.178 77.7119 110.184 77.7252C110.19 77.7384 110.198 77.7503 110.209 77.7603C110.219 77.7702 110.232 77.778 110.245 77.7832C110.259 77.7884 110.273 77.7908 110.288 77.7904H123.018C123.033 77.7905 123.047 77.7878 123.06 77.7823C123.074 77.7769 123.086 77.7688 123.096 77.7586C123.106 77.7485 123.115 77.7364 123.12 77.723C123.126 77.7097 123.129 77.6954 123.129 77.6809C123.189 76.5354 123.248 75.3902 123.305 74.2452C123.315 74.092 122.991 74.0591 121.828 72.9228C121.3 72.4317 120.797 71.9164 120.319 71.3768C119.949 70.9618 120.561 70.3462 120.932 70.7642C121.629 71.5503 122.382 72.2848 123.186 72.9618C123.202 72.9755 123.222 72.9843 123.244 72.9872C123.265 72.9902 123.286 72.9873 123.306 72.9787C123.326 72.9701 123.342 72.9563 123.355 72.9387C123.367 72.9211 123.374 72.9005 123.375 72.8792C123.45 71.3161 123.521 69.7527 123.588 68.1891C123.589 68.1731 123.586 68.157 123.58 68.142C123.575 68.127 123.565 68.1136 123.554 68.1026C123.446 67.9993 123.345 67.8859 123.253 67.7963L120.628 65.2924C120.224 64.9096 120.838 64.297 121.241 64.6799C121.318 64.7565 123.565 66.9004 123.644 66.9701C123.701 65.6429 123.753 64.3128 123.802 62.98C123.803 62.9614 123.799 62.9428 123.791 62.926C123.783 62.9092 123.77 62.8948 123.755 62.8843C123.537 62.6868 123.332 62.4747 123.142 62.2495L120.426 59.4929C120.034 59.0986 120.645 58.4822 121.038 58.8804L123.671 61.5443C123.686 61.5619 123.706 61.5745 123.728 61.5802C123.75 61.5858 123.774 61.5843 123.795 61.5759C123.817 61.5674 123.835 61.5524 123.848 61.533C123.86 61.5136 123.866 61.4908 123.865 61.4677C123.897 60.5841 124.014 56.9186 124.014 56.9186C124.015 56.9023 124.012 56.8862 124.006 56.8711C124 56.8561 123.99 56.8425 123.978 56.8313C123.851 56.7149 124.126 56.999 121.298 54.015C120.916 53.6099 121.528 52.9966 121.911 53.4024L123.86 55.4561C123.874 55.4751 123.895 55.4889 123.918 55.4954C123.941 55.5019 123.965 55.5007 123.987 55.4921C124.01 55.4835 124.029 55.4678 124.041 55.4475C124.054 55.4272 124.059 55.4033 124.057 55.3795C124.079 54.6577 124.099 53.9359 124.119 53.2141C124.123 53.1024 124.171 52.9968 124.252 52.9195C124.332 52.8421 124.44 52.7989 124.552 52.7989C124.663 52.7989 124.771 52.8421 124.852 52.9195C124.932 52.9968 124.98 53.1024 124.985 53.2141C124.96 54.1564 124.935 55.0993 124.908 56.0426C124.954 55.9921 126.661 54.27 127.139 53.7868C127.532 53.3902 128.145 54.0043 127.752 54.3994C127.195 54.9609 126.638 55.5224 126.08 56.084C125.776 56.486 125.391 56.8208 124.951 57.0671C124.929 57.0743 124.911 57.0877 124.897 57.1058C124.883 57.1238 124.875 57.1456 124.874 57.1682C124.743 61.4646 124.69 61.4884 124.761 61.565C124.781 61.5857 124.808 61.5981 124.836 61.5994C124.865 61.6007 124.893 61.5908 124.914 61.5718L127.299 59.7257C127.735 59.3888 128.351 59.9975 127.911 60.3383C127.178 60.9011 124.716 62.8039 124.716 62.8039C124.639 62.8613 124.686 62.6867 124.506 67.0919C124.503 67.1146 124.508 67.1376 124.519 67.1577C124.529 67.1778 124.546 67.1941 124.567 67.2042C124.587 67.2143 124.611 67.2177 124.633 67.2141C124.656 67.2104 124.677 67.1998 124.693 67.1838C125.341 66.5865 126.077 66.0929 126.876 65.7205C127.399 65.5252 127.626 66.3622 127.106 66.5566C126.535 66.8208 126.01 67.1739 125.55 67.6026C125.246 67.8942 124.9 68.1382 124.524 68.3262C124.42 68.366 124.467 68.0774 124.25 72.8914C124.247 72.9144 124.251 72.9378 124.262 72.9583C124.273 72.9788 124.29 72.9953 124.311 73.0054C124.332 73.0155 124.355 73.0188 124.378 73.0147C124.401 73.0106 124.422 72.9993 124.438 72.9825C124.815 72.6617 124.501 72.9297 126.149 71.4672C126.564 71.0973 127.179 71.7084 126.762 72.0797C126.182 72.5984 125.603 73.114 125.024 73.6265C124.788 73.8771 124.523 74.1003 124.237 74.2919C124.219 74.3014 124.204 74.3151 124.193 74.3318C124.182 74.3485 124.176 74.3677 124.175 74.3876C124.122 75.4803 124.005 77.6802 124.005 77.6802C124.005 77.7093 124.017 77.7371 124.038 77.7577C124.059 77.7782 124.086 77.7897 124.116 77.7897C136.224 77.7897 149.453 77.7813 149.355 77.7897C149.384 77.7871 149.411 77.7734 149.43 77.7513C149.448 77.7293 149.458 77.7007 149.456 77.6718C149.357 75.9405 148.818 72.0484 147.417 71.1976Z" fill="#E5E5E5"/>
<path d="M94.4221 56.6483L86.6953 56.747L88.2796 58.3298C88.7329 58.0394 89.2524 57.8689 89.7896 57.8342C90.3268 57.7995 90.864 57.9018 91.3509 58.1314C91.3509 58.1314 91.7475 57.0457 94.4221 56.6483Z" fill="#B3EE6D"/>
<path d="M92.9364 67.6463L88.0811 66.4594C88.0811 66.4594 89.6668 65.0719 89.6668 63.784C89.6391 62.7893 89.5395 61.798 89.369 60.8176H90.1623C90.0737 62.2142 90.207 63.616 90.5574 64.9709C90.7547 65.5533 91.0669 66.0903 91.4756 66.5498C91.8842 67.0094 92.381 67.3822 92.9364 67.6463Z" fill="#B3EE6D"/>
<path d="M74.5216 67.0911C74.1387 67.9854 73.2198 69.0566 72.1746 69.0766C72.078 69.0815 71.9848 69.1138 71.9059 69.1698C71.827 69.2258 71.7656 69.3031 71.7291 69.3927C71.6925 69.4823 71.6823 69.5804 71.6995 69.6757C71.7167 69.7709 71.7606 69.8592 71.8262 69.9303C71.5628 71.6693 72.1325 75.5155 72.0858 76.4496C72.3056 88.6804 70.987 107.916 61.6629 112.067C57.7363 113.828 54.5693 112.417 52.6068 109.715L51.2676 109.605C56.9699 118.559 71.9847 114.501 72.9036 85.655L72.9871 83.9858C73.082 76.7567 73.2068 71.9013 72.7482 69.9893C73.3342 69.8045 73.873 69.4943 74.3271 69.0803C74.7811 68.6663 75.1396 68.1584 75.3776 67.5918C75.628 67.0122 74.7742 66.5076 74.5216 67.0911Z" fill="#E5E5E5"/>
<path d="M54.491 48.6887L52.9244 50.2967C52.8703 49.5738 52.8231 48.852 52.7827 48.1312C53.0431 47.9168 53.2812 47.622 53.4803 47.4421L55.0064 46.0324C55.4283 45.6411 54.7966 45.0117 54.3754 45.4015L52.7222 46.9329C52.6615 45.6388 52.6222 44.3435 52.6043 43.0469C52.8448 42.8937 53.0638 42.664 53.2636 42.5193L54.6021 41.5017C55.0531 41.1594 54.6097 40.3853 54.1511 40.7321C53.6342 41.1242 53.1128 41.5147 52.5967 41.909C52.5921 41.1464 52.5956 40.3842 52.6074 39.6226C52.8611 39.4527 53.0992 39.2605 53.3187 39.0483L54.7736 37.8737C55.22 37.5131 54.586 36.8852 54.1434 37.2428L52.6235 38.4679C52.6398 37.7854 52.6615 37.1027 52.6886 36.4196C52.7115 35.8469 51.8195 35.8476 51.7965 36.4196C51.772 37.0113 51.7526 37.6039 51.7383 38.1976C51.2691 37.7846 50.7496 37.4324 50.1923 37.1494C49.6816 36.889 49.2298 37.6578 49.7421 37.9189C50.2608 38.1772 50.7432 38.5026 51.177 38.8868C51.3463 39.0399 51.5178 39.2773 51.713 39.4611C51.7013 40.2712 51.697 41.0808 51.7 41.8899C51.6234 41.8317 50.4626 40.9014 50.5415 40.9664C50.102 40.6081 49.4657 41.2352 49.9113 41.5959C51.6885 43.0331 51.3799 42.821 51.7115 43.0622C51.7299 44.3976 51.771 45.7315 51.8348 47.0638C51.3678 46.6468 50.8595 46.2784 50.3179 45.9643C50.2171 45.9149 50.1013 45.9054 49.9938 45.9376C49.8863 45.9699 49.7949 46.0416 49.7379 46.1383C49.6809 46.235 49.6625 46.3497 49.6864 46.4594C49.7104 46.5691 49.7748 46.6657 49.8669 46.73C50.5955 47.1901 51.2752 47.7235 51.8953 48.3219C51.9412 49.1162 51.9951 49.9105 52.0568 50.7048C51.409 50.3713 50.7638 50.0328 50.1211 49.6895C49.6165 49.4161 49.1655 50.1864 49.6709 50.4552C50.2069 50.7446 50.7429 51.031 51.2881 51.3074C51.6778 51.5073 52.1602 51.8687 52.6173 51.7324C53.0745 51.5961 53.4765 50.9973 53.8004 50.6604L55.1212 49.325C55.5225 48.9084 54.8915 48.2767 54.491 48.6887Z" fill="#E5E5E5"/>
<path d="M61.1708 48.4735C59.8271 50.0599 58.5903 51.7339 57.4685 53.4843C57.1577 53.969 57.928 54.4169 58.2342 53.9345C59.314 52.246 60.5047 50.6312 61.7986 49.1006C62.1708 48.6687 61.5421 48.0347 61.1708 48.4735Z" fill="#E5E5E5"/>
<path d="M50.8887 53.1007L44.5892 53.1704C44.6179 52.8621 44.631 52.5526 44.6282 52.2431C44.7974 52.1336 46.1535 51.1045 46.0747 51.1642C46.5272 50.8235 46.0831 50.0493 45.6252 50.3947C45.2876 50.625 44.9646 50.8762 44.6581 51.1466C44.6759 50.3012 44.6808 49.4564 44.6726 48.6121C44.7875 48.5202 46.4192 47.0898 46.3427 47.1572C46.7753 46.779 46.1428 46.1511 45.7117 46.5263L44.6535 47.452C44.6382 46.8012 44.616 46.1506 44.5869 45.5002C45.1745 44.9748 45.7002 44.3839 46.1535 43.7391C46.4904 43.2728 45.714 42.8271 45.3878 43.2888C45.1137 43.6717 44.9958 43.7934 44.5294 44.3509C44.4935 43.7498 44.4529 43.1487 44.4039 42.5492C44.3579 41.981 43.4659 41.9756 43.5133 42.5492C43.5608 43.1227 43.5991 43.7146 43.6343 44.2973L42.6665 43.5316C42.22 43.1801 41.5845 43.808 42.0355 44.1625C43.8143 45.5599 43.5968 45.3999 43.7025 45.4688C43.7392 46.2667 43.7647 47.0641 43.779 47.8609C43.2686 47.3879 42.7212 46.9564 42.1419 46.5707C41.6634 46.2529 41.2162 47.0255 41.6925 47.3364C43.0003 48.2032 43.3334 48.7453 43.789 48.8709C43.7951 49.6688 43.7885 50.4671 43.7691 51.266C43.6213 51.1443 43.4781 51.0111 43.4199 50.9651C43.1496 50.7522 42.8916 50.5256 42.6397 50.2882C42.2216 49.8969 41.5899 50.5271 42.0095 50.9192C42.5479 51.4252 43.1269 51.8862 43.7408 52.2975C43.7408 52.3365 43.7101 53.1719 43.7109 53.1865L26.392 53.3786C26.392 52.6505 26.3835 51.9238 26.3744 51.1925L29.6493 48.4138C30.0888 48.0416 29.4541 47.4183 29.0191 47.7836L26.3567 50.0447C26.3282 48.1749 26.2832 46.307 26.222 44.4412C27.1677 43.3515 28.198 42.3381 29.3032 41.4105C29.7427 41.0422 29.111 40.4151 28.6738 40.7796C27.7928 41.5156 26.9591 42.3063 26.1776 43.1472C26.1316 41.8909 26.077 40.6359 26.0137 39.3822C26.6851 38.8544 27.3287 38.2921 27.9418 37.6976C28.3713 37.3147 27.7389 36.6868 27.3116 37.0666C26.8606 37.4671 26.4126 37.8691 25.9601 38.2665C25.9233 37.5789 25.8846 36.8921 25.8437 36.206C26.1293 36.0758 26.3231 35.7933 27.3981 34.5214C27.7672 34.0819 27.1401 33.4494 26.7687 33.8912L26.1094 34.6569C26.0191 34.7664 25.9019 34.951 25.7733 35.0888C25.7283 34.3558 25.6806 33.6263 25.6301 32.9004C25.591 32.3307 24.6997 32.3269 24.7396 32.9004C24.7829 33.5415 24.8245 34.1819 24.8644 34.8216C24.6936 34.6638 23.774 33.9517 23.8506 34.0122C23.4034 33.6623 22.7686 34.2886 23.2204 34.6424C25.1615 36.1631 24.6377 35.7948 24.9386 36.0138C24.9897 36.8668 25.0369 37.7198 25.0803 38.5728C24.8046 38.3806 24.6025 38.2864 23.542 37.546C23.0825 37.2267 22.6231 37.9916 23.0917 38.3155C23.7234 38.8063 24.4079 39.2252 25.1324 39.5644C25.1967 40.8983 25.2531 42.2321 25.3016 43.566L22.6905 41.6089C22.2311 41.265 21.7862 42.0384 22.2403 42.3746L25.3368 44.7023C25.3986 46.6064 25.443 48.5143 25.47 50.4261C24.1578 49.7211 22.9059 48.9089 21.7272 47.998C21.2732 47.648 20.8283 48.4222 21.2778 48.7675C22.2845 49.5472 23.3443 50.2559 24.4493 50.8885C24.7725 51.1059 25.1193 51.2857 25.4831 51.4245C25.4907 52.0785 25.4958 52.7321 25.4984 53.3855L14.9139 53.5027C14.7957 53.5027 14.6824 53.5496 14.5988 53.6332C14.5152 53.7168 14.4683 53.8301 14.4683 53.9483C14.4683 54.0665 14.5152 54.1799 14.5988 54.2635C14.6824 54.347 14.7957 54.394 14.9139 54.394L50.8971 53.9874C51.0056 53.9736 51.1053 53.9205 51.1772 53.8381C51.2492 53.7556 51.2883 53.6497 51.2873 53.5403C51.2862 53.4309 51.2451 53.3257 51.1716 53.2447C51.0981 53.1636 50.9975 53.1124 50.8887 53.1007Z" fill="#E5E5E5"/>
</svg>
