<svg xmlns="http://www.w3.org/2000/svg" version="1.0" preserveAspectRatio="xMidYMid meet" viewBox="54.83 74.9 196.24 42.64">
<metadata>
Created by potrace 1.10, written by Peter Selinger 2001-2011
</metadata>
<g transform="translate(0.000000,200.000000) scale(0.100000,-0.100000)" fill="#000000" stroke="none">
<path d="M576 1224 c-37 -38 -37 -99 0 -116 23 -11 29 -10 45 11 23 28 24 41 5 41 -24 0 -29 19 -12 45 33 50 6 63 -38 19z m16 -35 c-3 -20 0 -34 9 -40 10 -6 11 -11 2 -20 -17 -17 -33 -1 -33 35 0 25 14 56 25 56 1 0 -1 -14 -3 -31z"/>
<path d="M728 1235 c-37 -21 -58 -64 -58 -119 0 -53 31 -96 91 -127 26 -13 39 -26 39 -39 0 -27 -41 -27 -65 0 -24 26 -27 26 -65 -10 l-33 -31 34 -35 c60 -62 135 -66 194 -10 71 67 52 158 -42 209 -35 19 -53 35 -53 47 0 27 13 31 45 14 29 -15 30 -14 57 18 15 18 28 36 28 40 0 4 -14 17 -31 29 -39 28 -105 34 -141 14z m108 -21 c38 -18 40 -22 21 -49 -12 -15 -19 -16 -44 -8 -37 13 -63 0 -63 -32 0 -28 10 -38 65 -69 49 -27 81 -81 71 -120 -4 -16 -20 -41 -36 -57 -33 -33 -91 -39 -139 -14 -29 14 -47 43 -35 54 4 3 9 0 11 -7 7 -19 58 -42 92 -42 45 0 85 39 85 83 0 44 -15 62 -75 92 -25 13 -49 31 -53 40 -24 64 17 117 74 97 37 -13 41 4 4 18 -54 21 -104 -15 -104 -76 0 -39 30 -79 81 -105 55 -27 69 -61 42 -97 -27 -36 -79 -41 -116 -12 -15 12 -25 26 -21 31 3 5 17 0 31 -11 45 -35 93 -21 93 27 0 17 -10 29 -32 41 -18 9 -47 31 -65 49 -27 25 -33 39 -33 73 0 51 12 75 48 94 35 20 56 20 98 0z"/>
<path d="M950 1040 l0 -210 115 0 115 0 0 50 0 50 -65 0 -65 0 0 30 c0 30 1 30 55 30 l55 0 0 50 0 50 -55 0 c-52 0 -55 1 -55 25 0 24 2 25 65 25 l65 0 0 55 0 55 -115 0 -115 0 0 -210z m210 155 l0 -35 -65 0 -65 0 0 -45 0 -45 55 0 c54 0 55 0 55 -30 0 -30 -1 -30 -55 -30 l-55 0 0 -50 0 -50 65 0 65 0 0 -30 0 -30 -95 0 -95 0 0 190 0 190 95 0 95 0 0 -35z"/>
<path d="M1048 1203 l-58 -4 0 -164 0 -165 75 0 c43 0 75 4 75 10 0 6 -28 10 -65 10 l-65 0 0 70 0 70 55 0 c30 0 55 5 55 10 0 6 -25 10 -55 10 l-55 0 0 71 0 70 63 -2 c34 -2 61 1 60 7 -2 11 -11 12 -85 7z"/>
<path d="M1220 1040 l0 -210 120 0 120 0 0 50 0 50 -65 0 -65 0 0 30 c0 30 1 30 55 30 l55 0 0 50 0 50 -55 0 c-52 0 -55 1 -55 25 0 24 2 25 65 25 l65 0 0 55 0 55 -120 0 -120 0 0 -210z m215 155 c0 -30 0 -30 -62 -33 l-63 -3 0 -44 0 -45 55 0 c54 0 55 0 55 -30 0 -30 -1 -30 -55 -30 l-55 0 0 -50 0 -50 65 0 65 0 0 -30 0 -30 -100 0 -100 0 0 183 c0 101 3 187 7 191 4 4 48 5 98 4 l90 -3 0 -30z"/>
<path d="M1333 1202 l-63 -3 0 -164 0 -165 76 0 c47 0 73 4 69 10 -3 6 -33 10 -66 10 l-59 0 0 70 0 70 55 0 c30 0 55 5 55 10 0 6 -25 10 -55 10 l-55 0 0 71 0 71 59 -4 c34 -2 60 1 61 7 2 12 0 12 -77 7z"/>
<path d="M1500 1040 l0 -210 50 0 50 0 0 64 c0 36 3 67 8 70 4 2 25 -26 47 -64 l40 -68 62 -4 c35 -2 63 -2 63 0 0 1 -27 45 -60 97 -32 52 -64 104 -70 115 -9 17 -1 34 55 115 l66 95 -63 0 -63 0 -42 -72 -43 -73 0 73 0 72 -50 0 -50 0 0 -210z m82 103 l3 -86 58 86 c54 82 59 87 93 87 25 0 33 -3 28 -12 -4 -7 -29 -45 -56 -85 -26 -40 -48 -75 -48 -79 0 -3 24 -45 53 -92 29 -48 57 -93 61 -99 5 -10 -3 -13 -31 -13 -37 0 -40 3 -83 75 l-45 75 -17 -22 c-12 -15 -18 -41 -18 -75 0 -52 -1 -53 -30 -53 l-30 0 0 190 0 190 30 0 29 0 3 -87z"/>
<path d="M1540 1040 c0 -107 4 -170 10 -170 6 0 10 21 10 48 0 37 7 54 29 82 l29 34 40 -64 c54 -88 69 -106 77 -98 3 3 -19 45 -50 93 l-56 88 48 71 c57 84 58 86 44 86 -6 0 -40 -45 -76 -100 -36 -54 -70 -102 -75 -105 -6 -4 -10 34 -10 99 0 64 -4 106 -10 106 -6 0 -10 -63 -10 -170z"/>
<path d="M1840 1040 l0 -210 118 0 117 0 -3 50 -4 50 -59 0 c-59 0 -59 0 -59 30 0 30 1 30 55 30 l55 0 0 50 0 50 -55 0 c-52 0 -55 1 -55 25 0 23 4 24 61 27 l62 3 0 50 0 50 -117 3 -116 3 0 -211z m210 155 l0 -35 -60 0 -60 0 0 -45 0 -45 55 0 c54 0 55 0 55 -30 0 -30 -1 -30 -55 -30 l-55 0 0 -50 0 -50 60 0 c60 0 60 0 60 -30 l0 -30 -95 0 -95 0 0 190 0 190 95 0 95 0 0 -35z"/>
<path d="M1948 1203 l-68 -4 0 -164 0 -165 75 0 c43 0 75 4 75 10 0 6 -28 10 -65 10 l-65 0 0 70 0 70 55 0 c30 0 55 5 55 10 0 6 -25 10 -55 10 l-56 0 3 68 3 67 63 0 c43 0 62 4 62 12 0 7 -3 12 -7 11 -5 -1 -38 -3 -75 -5z"/>
<path d="M2110 1040 l0 -210 55 0 54 0 3 66 3 66 35 -65 35 -66 62 -3 c35 -2 63 -2 63 -2 0 1 -20 37 -44 80 l-45 78 31 34 c28 33 30 39 26 98 -6 103 -51 134 -193 134 l-85 0 0 -210z m194 176 c47 -19 66 -51 66 -109 0 -42 -5 -54 -33 -82 l-34 -34 40 -71 39 -71 -38 3 c-35 3 -40 8 -72 66 -23 42 -40 62 -53 62 -17 0 -19 -8 -19 -65 l0 -65 -32 0 -33 0 2 187 c2 104 3 189 3 191 1 9 137 -1 164 -12z"/>
<path d="M2203 1203 l-43 -4 0 -165 c0 -103 4 -164 10 -164 6 0 10 28 10 65 l0 65 35 0 c31 0 37 -5 64 -52 44 -79 48 -84 56 -76 4 3 -10 36 -30 72 -29 53 -33 66 -20 66 9 0 27 11 40 25 19 18 25 35 25 69 0 78 -45 108 -147 99z m110 -41 c13 -14 21 -34 21 -57 0 -52 -30 -77 -98 -83 l-56 -4 0 87 0 87 56 -4 c39 -3 62 -11 77 -26z"/>
<path d="M2202 1103 l3 -58 39 2 c49 3 66 18 66 57 0 43 -16 56 -67 56 l-44 0 3 -57z m86 8 c4 -28 -4 -36 -40 -45 -27 -6 -28 -5 -28 38 l0 43 33 -6 c23 -5 33 -13 35 -30z"/>
<path d="M2436 1234 c-20 -20 -20 -33 1 -56 15 -17 15 -19 -1 -37 -18 -19 -15 -41 5 -41 6 0 24 13 40 29 45 45 37 121 -12 121 -10 0 -25 -7 -33 -16z m52 -39 c2 -17 -4 -39 -13 -50 -15 -19 -15 -19 -9 8 5 20 2 32 -11 41 -21 15 -11 39 13 34 11 -2 18 -15 20 -33z"/>
</g>
</svg>