<svg xmlns="http://www.w3.org/2000/svg" xmlns:xlink="http://www.w3.org/1999/xlink" version="1.1" id="Layer_1" x="0px" y="0px" enable-background="new 0 0 1024 672" xml:space="preserve" viewBox="431.77 225.67 158.76 244.6">
<path fill="#000000" opacity="1.000000" stroke="none" d=" M518.484131,467.558960   C513.897949,471.310394 510.080017,470.885223 505.196930,467.979279   C482.435303,454.433685 459.407349,441.334198 436.417572,428.174896   C433.400238,426.447723 431.731079,424.536530 431.768372,420.765106   C431.943115,403.102692 431.838531,385.437592 431.863251,367.773499   C431.865051,366.476196 432.100281,365.179199 432.212708,364.028290   C434.528137,362.708893 436.010620,364.240356 437.491974,365.071228   C453.909851,374.279510 470.289001,383.556824 486.671112,392.828796   C488.270142,393.733765 490.103760,394.651947 490.128662,396.765564   C490.220062,404.519775 490.164886,412.275665 490.164886,421.271484   C477.925995,414.181793 466.708374,407.683716 455.310883,401.081421   C452.791229,410.171906 453.578217,412.378876 460.293915,416.268677   C471.970917,423.032043 483.663391,429.768799 495.354492,436.507782   C496.763611,437.320007 498.112152,438.344940 499.782166,438.258850   C501.348328,436.749115 500.822083,434.984406 500.826233,433.397797   C500.869171,417.066925 500.770966,400.735107 500.923767,384.405548   C500.957123,380.841400 499.931702,378.635193 496.703156,376.803558   C476.997345,365.623871 457.472748,354.124084 437.736145,343.000000   C433.403992,340.558289 431.734589,337.702271 431.819763,332.688965   C432.134033,314.196533 432.107391,295.695221 431.939606,277.199738   C431.897034,272.506775 433.335785,269.612976 437.581879,267.219482   C461.088989,253.968414 484.457153,240.469315 507.788483,226.909943   C510.622406,225.262985 512.771729,225.254517 515.558838,226.901459   C539.224548,240.885803 562.956787,254.757523 586.688232,268.630341   C588.848145,269.893005 590.294983,271.377319 590.287476,274.108795   C590.235657,292.938324 590.259216,311.768066 590.234253,330.597687   C590.233643,331.062622 589.952393,331.527191 589.813782,331.955688   C587.894409,333.198425 586.577393,331.742371 585.229309,330.982239   C569.121582,321.899536 553.063904,312.727997 536.935120,303.683075   C534.029419,302.053589 532.522766,300.101501 532.653198,296.573303   C532.895752,290.012390 532.722839,283.436157 532.722839,275.877625   C545.381042,281.416779 555.563354,288.964935 566.950134,294.300262   C569.504761,286.114197 568.574463,283.508942 561.958191,279.689270   C550.703979,273.192017 539.457886,266.680389 528.170593,260.241119   C526.347290,259.200958 524.686523,257.671448 522.122925,257.607544   C520.533386,261.658661 521.840576,265.817902 521.690063,269.853790   C521.168701,283.837280 521.204346,297.833130 521.645569,311.827332   C521.758667,315.411987 523.298279,317.509918 526.392517,319.267059   C545.949219,330.372742 565.344360,341.763916 584.947144,352.786346   C589.138611,355.143188 590.603882,357.845337 590.527588,362.671692   C590.224792,381.830688 590.299927,400.998596 590.499878,420.160400   C590.543884,424.377441 589.082764,426.842926 585.462646,428.909088   C563.182373,441.625244 541.007141,454.525391 518.484131,467.558960  M498.930878,279.500183   C498.930878,272.625153 498.930878,265.750122 498.930878,258.460052   C497.162231,258.946472 496.469513,258.994904 495.928497,259.306641   C482.942932,266.789612 469.989136,274.327911 456.987579,281.782898   C454.515198,283.200531 454.376495,285.372528 454.383514,287.782684   C454.415161,298.611633 454.619843,309.446991 454.305481,320.266815   C454.170319,324.919891 455.923035,327.467590 459.874878,329.693420   C479.464844,340.727295 498.866455,352.095337 518.438416,363.161713   C522.052002,365.204895 523.534241,367.563873 523.486267,371.831055   C523.258057,392.153748 523.361084,412.480377 523.408875,432.805481   C523.412964,434.539490 522.748230,436.458557 524.202087,438.078094   C524.718140,438.006165 525.274109,438.077606 525.657410,437.853638   C538.884949,430.123840 552.091919,422.358826 565.314026,414.619598   C567.489075,413.346436 567.873169,411.397583 567.861694,409.079834   C567.804138,397.418121 567.704712,385.753723 567.910339,374.095367   C567.975525,370.398010 566.528198,368.434265 563.408813,366.671234   C543.981995,355.691376 524.735229,344.391296 505.254181,333.510132   C500.601532,330.911407 498.626007,327.897369 498.765381,322.480286   C499.125153,308.494720 498.914124,294.494446 498.930878,279.500183  z"/>
<path fill="#000000" opacity="1.000000" stroke="none" d=" M545.287415,368.661682   C558.882996,376.565948 555.776001,372.976685 557.491028,388.687042   C559.046631,402.936951 554.422424,411.720367 541.158020,416.392273   C539.176392,417.090210 537.581543,418.792725 534.629028,418.964569   C534.629028,400.463440 534.629028,382.142944 534.629028,363.536255   C539.115784,364.161011 541.783081,366.859192 545.287415,368.661682  z"/>
<path fill="#000000" opacity="1.000000" stroke="none" d=" M486.476410,332.344269   C480.343262,329.031921 474.597198,325.696320 468.816803,322.421265   C466.560730,321.143005 465.583710,319.358002 465.619781,316.721039   C465.728973,308.736481 465.677277,300.749695 465.674255,292.763763   C465.673615,291.045013 465.820831,289.390594 467.491669,288.403046   C473.502472,284.850433 479.514526,281.299408 485.565125,277.815582   C486.047760,277.537720 486.829224,277.778931 487.389526,277.778931   C488.692963,279.100098 488.368744,280.664154 488.370239,282.117157   C488.385956,297.423431 488.392731,312.729797 488.331970,328.035858   C488.325897,329.561646 488.998810,331.486877 486.476410,332.344269  z"/>
</svg>